<svg width="105" height="130" viewBox="0 0 105 130" fill="none" xmlns="http://www.w3.org/2000/svg">
<path fill-rule="evenodd" clip-rule="evenodd" d="M34.4308 8.0807L33.5839 3.04721H27.6874L26.8404 8.0914C26.7386 8.70785 26.2615 9.201 25.645 9.32965C24.4925 9.59767 23.3614 9.96219 22.268 10.4178C21.1584 10.8788 20.0917 11.4309 19.0679 12.0635C18.5265 12.4065 17.8242 12.3636 17.3204 11.967L13.2143 9.04554L9.04384 13.216L12.0136 17.3865C12.3674 17.885 12.3888 18.5443 12.0672 19.0643C11.4293 20.0882 10.8772 21.1549 10.4162 22.2645C9.96056 23.3687 9.5907 24.5105 9.32266 25.6791C9.1833 26.2795 8.69013 26.7351 8.07904 26.8316L3.04555 27.6785V33.5697L8.08975 34.4167V34.422C8.71155 34.5239 9.20472 35.001 9.328 35.6174C9.87477 37.9438 10.7967 40.1684 12.0672 42.1947C12.4049 42.7361 12.362 43.4383 11.9653 43.9421L9.04392 48.0482L13.2144 52.2187L17.3849 49.2598C17.8834 48.9007 18.5481 48.8792 19.0681 49.2062C21.1051 50.482 23.3404 51.4094 25.6775 51.9508C26.2779 52.0901 26.7389 52.5833 26.8353 53.1944L27.6823 58.2279H33.5735L34.4204 53.1837C34.5276 52.5619 34.9993 52.0687 35.6158 51.9454C37.9475 51.3987 40.1668 50.4767 42.1931 49.2062C42.7398 48.8685 43.4367 48.906 43.9405 49.3081L48.0466 52.2295L52.2171 48.059L49.2474 43.8886H49.2527C48.8936 43.3901 48.8775 42.7254 49.1991 42.2053C50.4749 40.1683 51.4023 37.9384 51.9437 35.5959C52.083 34.9956 52.5762 34.5399 53.1873 34.4381L58.2208 33.5911V27.6893L53.1766 26.8423C52.5548 26.7351 52.0616 26.2634 51.9383 25.6469C51.3916 23.3152 50.4696 21.0959 49.2045 19.0696C48.8668 18.5229 48.9043 17.826 49.3063 17.3222L52.2278 13.2161L48.0573 9.04562L43.8868 12.0154V12.01C43.3883 12.3691 42.7236 12.3906 42.2036 12.0636C41.1851 11.4257 40.1131 10.8789 39.0035 10.418C37.8992 9.95697 36.7575 9.59246 35.5942 9.32443C34.9885 9.1797 34.5328 8.6919 34.4363 8.08081L34.4308 8.0807ZM72.5964 101.432C72.6179 100.612 73.2933 99.9581 74.1188 99.9581C74.939 99.9581 75.6143 100.612 75.6412 101.432V105.78H78.1231V98.2267C78.1124 97.8139 78.2678 97.4119 78.5519 97.1171C78.8414 96.8223 79.2381 96.6561 79.6508 96.6561C80.0582 96.6561 80.4549 96.8223 80.7444 97.1171C81.0285 97.4119 81.1839 97.8139 81.1732 98.2267V105.78H83.6551V96.2273C83.6551 95.3857 84.3359 94.7049 85.1828 94.7049C86.0244 94.7049 86.7052 95.3857 86.7052 96.2273V105.785H89.1871V93.2415C89.1764 92.8288 89.3318 92.4267 89.616 92.1319C89.9054 91.8371 90.3021 91.6709 90.7095 91.6709C91.1222 91.6709 91.5189 91.8371 91.8084 92.1319C92.0925 92.4267 92.2479 92.8288 92.2372 93.2415V105.785H95.5124C96.3379 105.812 96.9919 106.482 96.9919 107.307C96.9919 108.133 96.3379 108.803 95.5124 108.83H68.2605C67.4189 108.83 66.7381 108.149 66.7381 107.307V85.882C66.7381 85.0404 67.4189 84.3596 68.2605 84.3596C69.1021 84.3596 69.7882 85.0404 69.7882 85.882V105.785H72.5971L72.5964 101.432ZM31.4448 86.8243C31.434 86.4116 31.5895 86.0096 31.8736 85.7148C32.1631 85.4199 32.5544 85.2538 32.9671 85.2538C33.3799 85.2538 33.7765 85.4199 34.0606 85.7148C34.3501 86.0096 34.5056 86.4116 34.4895 86.8243V100.177L39.9625 105.645C40.5575 106.24 40.5575 107.205 39.9625 107.8C39.3675 108.395 38.4026 108.395 37.8076 107.8L31.9058 101.898C31.6109 101.608 31.4448 101.217 31.4448 100.804V86.8196L31.4448 86.8243ZM61.8227 83.935C60.9972 83.9082 60.3433 83.2328 60.3433 82.4126C60.3433 81.5871 60.9972 80.9117 61.8227 80.8849H92.6714C93.4915 80.9117 94.1455 81.5871 94.1455 82.4126C94.1455 83.2328 93.4915 83.9081 92.6714 83.935H61.8227ZM51.3001 70.5982V70.5928C50.4586 70.5928 49.7777 69.9121 49.7777 69.0704C49.7777 68.2289 50.4585 67.548 51.3001 67.548H92.6714C93.513 67.548 94.1938 68.2288 94.1938 69.0704C94.1938 69.912 93.513 70.5928 92.6714 70.5928L51.3001 70.5982ZM83.4044 88.7973L84.2567 88.8938L72.5978 95.5782L72.6031 95.5729C71.8902 96.0017 71.6543 96.9183 72.0671 97.6366C72.4745 98.3549 73.3858 98.6122 74.1148 98.2156L85.8166 91.5043L85.4467 92.3406V92.3459C85.2698 92.7158 85.2537 93.1446 85.3985 93.5252C85.5432 93.9112 85.838 94.2221 86.2132 94.3883C86.5885 94.5491 87.0173 94.5544 87.3979 94.399C87.7785 94.2435 88.0787 93.938 88.2288 93.5574L90.4212 88.5722C90.6464 88.1273 90.6357 87.602 90.3998 87.1625C90.1586 86.7283 89.7244 86.4335 89.2312 86.3799L83.7421 85.7741C82.9166 85.6991 82.1823 86.2994 82.0912 87.1196C82 87.9451 82.5843 88.6902 83.4098 88.7975L83.4044 88.7973ZM61.8227 78.1782C60.9811 78.1782 60.3003 77.4921 60.3003 76.6505C60.3003 75.8089 60.9811 75.1281 61.8227 75.1281H92.6714C93.513 75.1281 94.1938 75.8088 94.1938 76.6505C94.1938 77.4921 93.513 78.1782 92.6714 78.1782H61.8227ZM51.3001 64.836C50.48 64.8092 49.826 64.1338 49.826 63.3136C49.826 62.4881 50.48 61.8127 51.3001 61.7912H60.2306C60.638 61.7752 61.04 61.9306 61.3349 62.2201C61.6297 62.5042 61.8012 62.9009 61.8012 63.3136C61.8012 63.7264 61.6297 64.1177 61.3349 64.4072C61.04 64.6913 60.638 64.8467 60.2306 64.836L51.3001 64.836ZM66.3526 64.836C65.9452 64.8468 65.5432 64.6913 65.2483 64.4072C64.9535 64.1177 64.782 63.7264 64.782 63.3137C64.782 62.9009 64.9535 62.5042 65.2483 62.2201C65.5432 61.9307 65.9452 61.7752 66.3526 61.7913H92.6727C93.4929 61.8127 94.1468 62.4882 94.1468 63.3137C94.1468 64.1339 93.4929 64.8092 92.6727 64.8361L66.3526 64.836ZM58.3119 56.9508C57.8991 56.9616 57.5025 56.8061 57.2076 56.522C56.9075 56.2325 56.7413 55.8359 56.7413 55.4285C56.7413 55.0157 56.9075 54.6191 57.2076 54.3296C57.5025 54.0455 57.8991 53.89 58.3119 53.9008H85.6613C86.074 53.89 86.4707 54.0455 86.7655 54.3296C87.0657 54.6191 87.2319 55.0157 87.2319 55.4285C87.2319 55.8359 87.0657 56.2325 86.7655 56.522C86.4707 56.8061 86.074 56.9616 85.6613 56.9508H58.3119ZM15.0909 85.0824C14.5226 84.482 14.5334 83.5386 15.1177 82.9543C15.7019 82.37 16.6454 82.3593 17.2458 82.9275L20.1672 85.8543V85.8489C20.7622 86.4439 20.7622 87.4088 20.1672 88.0038C19.5722 88.5988 18.6073 88.5988 18.0123 88.0038L15.0909 85.0824ZM9.20504 102.326C8.79229 102.342 8.39562 102.187 8.10079 101.898C7.80061 101.613 7.63444 101.217 7.63444 100.804C7.63444 100.391 7.80061 99.9946 8.10079 99.7104C8.39561 99.421 8.79229 99.2709 9.20504 99.2816H13.3433C13.756 99.2709 14.1527 99.421 14.4475 99.7104C14.7477 99.9945 14.9139 100.391 14.9139 100.804C14.9139 101.217 14.7477 101.613 14.4475 101.898C14.1527 102.187 13.756 102.342 13.3433 102.326H9.20504ZM17.2457 118.687C16.9616 118.981 16.5703 119.153 16.1576 119.158C15.7448 119.164 15.3535 119.003 15.0587 118.713C14.7692 118.424 14.6084 118.027 14.6138 117.614C14.6191 117.202 14.7907 116.81 15.0908 116.532L18.0123 113.61V113.605C18.6073 113.01 19.5721 113.01 20.1672 113.605C20.7622 114.2 20.7622 115.165 20.1672 115.76L17.2457 118.687ZM34.4898 124.567C34.5059 124.98 34.3505 125.376 34.061 125.677C33.7769 125.971 33.3802 126.138 32.9675 126.138C32.5547 126.138 32.1634 125.971 31.8739 125.677C31.5898 125.376 31.4344 124.98 31.4451 124.567V120.434C31.4344 120.021 31.5898 119.619 31.8739 119.325C32.1634 119.03 32.5547 118.864 32.9675 118.864C33.3802 118.864 33.7769 119.03 34.061 119.325C34.3505 119.619 34.5059 120.021 34.4898 120.434V124.567ZM50.85 116.532C51.445 117.127 51.445 118.092 50.85 118.687C50.255 119.282 49.2902 119.282 48.6952 118.687L45.7737 115.76H45.7684C45.1787 115.165 45.1787 114.2 45.7684 113.605C46.3634 113.01 47.3282 113.01 47.9233 113.605L50.85 116.526L50.85 116.532ZM56.7305 99.2822C57.1432 99.2715 57.5453 99.4216 57.8401 99.7111C58.1349 99.9952 58.3011 100.392 58.3011 100.805C58.3011 101.217 58.1349 101.614 57.8401 101.898C57.5453 102.188 57.1432 102.343 56.7305 102.327H52.5976C52.1849 102.343 51.7882 102.188 51.488 101.898C51.1932 101.614 51.027 101.217 51.027 100.805C51.027 100.392 51.1932 99.9952 51.488 99.7111C51.7882 99.4216 52.1849 99.2715 52.5976 99.2822H56.7305ZM48.6952 82.922C49.2902 82.327 50.255 82.327 50.85 82.922C51.445 83.5224 51.445 84.4872 50.85 85.0823L47.9233 88.0037C47.3283 88.5987 46.3634 88.5987 45.7684 88.0037C45.1787 87.4087 45.1787 86.4438 45.7684 85.8488L48.6898 82.922H48.6952ZM31.4457 77.0416C31.435 76.6288 31.5904 76.2321 31.8745 75.932C32.164 75.6371 32.5553 75.471 32.9681 75.471C33.3808 75.471 33.7775 75.6371 34.0616 75.932C34.3511 76.2321 34.5065 76.6288 34.4904 77.0416V81.1798C34.5065 81.5925 34.3511 81.9946 34.0616 82.2894C33.7775 82.5842 33.3808 82.7504 32.9681 82.7504C32.5553 82.7504 32.164 82.5842 31.8745 82.2894C31.5904 81.9946 31.435 81.5925 31.4457 81.1798V77.0416ZM32.9681 71.6061C32.6947 71.6061 32.4267 71.6061 32.1587 71.6169V61.2658H34.335H34.3296C35.3856 61.2658 36.2808 60.5046 36.4577 59.4647L37.2672 54.6564C37.8675 54.4902 38.4572 54.308 39.0362 54.0989V72.239C37.0421 71.8155 35.0051 71.6061 32.9681 71.6061ZM42.0808 73.0588V52.7698C42.3703 52.6251 42.649 52.4696 42.9331 52.3088L46.9105 55.1391C47.7682 55.7502 48.9422 55.6537 49.6818 54.9086L54.9082 49.6822C55.6533 48.9371 55.7498 47.7632 55.1387 46.9109L52.3084 42.9335C52.346 42.8692 52.3781 42.8102 52.4156 42.7459H101.893V115.235H58.3603C62.6808 107.618 63.3616 98.4614 60.2097 90.2923C57.0578 82.1177 50.4055 75.7929 42.0861 73.0538L42.0808 73.0588ZM56.3716 118.279C50.5127 126.116 41.1271 130.501 31.3593 129.954C21.5925 129.413 12.7485 124.02 7.79462 115.582C2.8469 107.151 2.44496 96.7988 6.7279 88.0026C11.0162 79.2115 19.4161 73.1491 29.1124 71.8564V61.2642H26.9468C25.8908 61.2642 24.9956 60.503 24.824 59.4631L24.0093 54.6548C22.0313 54.1133 20.1283 53.32 18.3433 52.3069L14.3659 55.1372C13.5136 55.7483 12.3396 55.6518 11.5946 54.9067L6.35746 49.6803C5.61235 48.9352 5.51587 47.7613 6.13232 46.909L8.96263 42.9316C8.4534 42.0364 8.00311 41.1145 7.60644 40.1657C7.21513 39.2222 6.88279 38.252 6.60941 37.2656L1.80111 36.4562V36.4509C0.761185 36.2793 0 35.3788 0 34.3281V26.9361C0 25.8855 0.766537 24.9849 1.80111 24.8133L6.60941 24.0039C7.15617 22.0206 7.94416 20.1176 8.96258 18.3326L6.13227 14.3552C5.51582 13.5029 5.6123 12.3289 6.3574 11.5839L11.5892 6.35211C12.3343 5.607 13.5082 5.51052 14.3605 6.12697L18.3379 8.95193C19.2277 8.44804 20.155 7.99241 21.1038 7.60109C22.0473 7.20977 23.0175 6.87744 24.0038 6.60405L24.8133 1.79575C24.9902 0.755833 25.8854 0 26.9414 0H34.3334C35.384 0 36.2846 0.761185 36.4562 1.80111L37.2656 6.60941C39.2436 7.15081 41.1519 7.93879 42.9316 8.95187L46.9089 6.12156V6.12692C47.7666 5.51047 48.9406 5.60696 49.6802 6.35206L54.9067 11.5785H54.912C55.6571 12.3236 55.7536 13.4975 55.1372 14.3498L52.3069 18.3325C52.8161 19.2277 53.2664 20.1497 53.6631 21.0985C54.0544 22.0473 54.3867 23.0175 54.6601 24.0039L59.4684 24.8133C60.5083 24.9848 61.2695 25.8854 61.2695 26.936V29.1016H92.2156C93.7594 29.107 95.0084 30.356 95.0138 31.8945V39.6939H102.143C103.682 39.6993 104.936 40.9482 104.936 42.4921V115.485C104.931 117.028 103.682 118.277 102.143 118.277L56.3716 118.279ZM51.4562 82.3107C45.7098 76.5643 37.6154 73.8144 29.5588 74.8757C21.5021 75.9371 14.3939 80.6865 10.3251 87.7247C6.26193 94.7629 5.70438 103.292 8.8134 110.801C11.9224 118.31 18.3442 123.945 26.1973 126.051C34.0504 128.158 42.434 126.49 48.8823 121.543C55.3306 116.595 59.11 108.93 59.1154 100.804C59.1207 93.8671 56.3655 87.2095 51.4553 82.3094L51.4562 82.3107ZM58.3068 49.6067C57.4652 49.6067 56.7844 48.9259 56.7844 48.0843C56.7844 47.2427 57.4652 46.5619 58.3068 46.5619H77.8342C78.6758 46.5619 79.3566 47.2427 79.3566 48.0843C79.3566 48.9259 78.6759 49.6067 77.8342 49.6067H58.3068ZM53.8469 39.6952C54.1578 38.9019 54.4312 38.087 54.6564 37.267L59.4647 36.4576V36.4522C60.5046 36.2807 61.2658 35.3801 61.2658 34.3294V32.1639H91.9649V39.7006L53.8469 39.6952ZM30.6364 14.0461C38.5483 14.0461 45.3608 19.6317 46.9046 27.3936C48.4484 35.1556 44.2942 42.9277 36.9824 45.9563C29.6708 48.9849 21.2384 46.4281 16.843 39.8508C12.4474 33.2682 13.3105 24.4979 18.9067 18.9017C22.0104 15.7874 26.2353 14.0354 30.6364 14.0461ZM40.2155 21.0576C44.7825 25.6246 45.4847 32.7862 41.8987 38.1574C38.3072 43.534 31.4244 45.6192 25.4534 43.148C19.4872 40.6768 16.0941 34.33 17.3539 27.994C18.6136 21.6579 24.1778 17.0909 30.637 17.0909C34.2285 17.0855 37.6746 18.5115 40.2155 21.0576Z" fill="#444444"/>
</svg>
