<svg width="99" height="130" viewBox="0 0 99 130" fill="none" xmlns="http://www.w3.org/2000/svg">
<path d="M8.17122 15.3121L17.251 18.8144V23.9997C17.251 25.1436 17.8065 26.1458 18.7162 26.7885C17.6268 29.087 17.0386 31.598 17.0386 34.1635C17.0386 43.6572 24.7622 51.3868 34.2619 51.3868C43.7556 51.3868 51.4852 43.6632 51.4852 34.1635C51.4852 31.5981 50.886 29.1034 49.7967 26.7995C50.7172 26.1568 51.2619 25.1546 51.2619 24.0108V18.8254L54.8024 17.4582V25.1545C54.3449 25.2089 53.9636 25.5848 53.9636 26.075V28.8365C53.9636 30.1764 55.0529 31.2604 56.3874 31.2604C57.7273 31.2604 58.8112 30.171 58.8112 28.8365V26.075C58.8112 25.6011 58.4354 25.2089 57.9725 25.1545V16.2327L60.3309 15.3285C61.5292 14.871 62.2972 13.7381 62.2972 12.4581C62.2972 11.1726 61.5184 10.0451 60.3309 9.58764L36.8385 0.502466C35.1227 -0.167489 33.3798 -0.167489 31.6531 0.502466L8.17189 9.56589C6.97359 10.0234 6.20554 11.1563 6.20554 12.4363C6.1892 13.7218 6.97287 14.8492 8.17122 15.3121ZM34.2446 48.2053C26.5047 48.2053 20.2033 41.9035 20.2033 34.164C20.2033 32.0888 20.6935 30.0517 21.5541 28.1944C25.3886 29.7414 29.7134 30.5801 34.2451 30.5801C38.7768 30.5801 43.1016 29.7576 46.9361 28.1944C47.813 30.0463 48.2869 32.0835 48.2869 34.164C48.2869 41.9039 41.9949 48.2053 34.2446 48.2053ZM48.0794 24.0102C48.0794 24.1355 48.0358 24.2063 47.9269 24.2608C43.9943 26.3088 39.2556 27.3981 34.2501 27.3981C29.2445 27.3981 24.5166 26.3087 20.5732 24.2608C20.4643 24.2063 20.4207 24.1355 20.4207 24.0102V20.034L31.6574 24.3697C32.5234 24.7019 33.384 24.8708 34.2501 24.8708C35.1161 24.8708 35.9767 24.7019 36.8428 24.3697L48.0795 20.034L48.0794 24.0102ZM32.7957 3.45994C33.787 3.08412 34.7075 3.08412 35.6933 3.45994L58.9668 12.4417L55.372 13.8197L34.4675 10.8621C33.6015 10.7368 32.7954 11.3359 32.6811 12.2129C32.5558 13.0789 33.1549 13.885 34.0319 13.9993L49.3156 16.1617L35.7041 21.4178C34.7128 21.7937 33.7923 21.7937 32.8065 21.4178L9.53303 12.4361L32.7957 3.45994ZM97.6717 119.972L90.8087 110.239C91.1301 109.487 91.3098 108.648 91.2989 107.772C91.2989 106.448 92.1377 105.288 93.3905 104.885C95.3403 104.258 96.7675 102.848 97.3938 100.898C98.0202 98.9478 97.7152 96.9651 96.5006 95.3202C95.7217 94.2581 95.7217 92.8255 96.5006 91.7635C97.7152 90.1185 98.0366 88.1359 97.3938 86.186C96.7675 84.2361 95.3458 82.8252 93.3905 82.1989C92.1377 81.7958 91.2989 80.6357 91.2989 79.3121C91.3152 77.2641 90.4056 75.4776 88.7498 74.2793C87.0886 73.081 85.1114 72.776 83.1724 73.4023C81.9196 73.8217 80.5525 73.3751 79.7845 72.3021C78.5862 70.6408 76.7997 69.7203 74.7516 69.7203C72.7035 69.7203 70.9171 70.6408 69.7188 72.3021C68.9508 73.3751 67.5837 73.8217 66.3308 73.4023C65.8134 73.2335 65.3014 73.1354 64.7839 73.0973C58.9668 61.6318 47.0977 54.2566 34.2444 54.2566C15.366 54.2566 0 69.6226 0 88.501V93.8824C0 98.1472 3.46962 101.622 7.73988 101.622H52.4142C53.1386 103.196 54.3968 104.368 56.0962 104.912C57.3489 105.315 58.1877 106.475 58.1877 107.799C58.1877 108.676 58.3566 109.498 58.6779 110.266L51.815 120C51.1178 120.975 51.1014 122.271 51.7605 123.279C52.4141 124.281 53.6124 124.771 54.7889 124.521L59.3752 123.556L60.8404 128.006C61.2162 129.15 62.2347 129.929 63.4331 130H63.6019C64.7294 130 65.748 129.357 66.2381 128.312L71.663 116.568C72.5672 117.086 73.6129 117.374 74.7296 117.374C75.8462 117.374 76.8919 117.097 77.7961 116.568L83.2319 128.312C83.7057 129.341 84.7352 130 85.8681 130H86.0369C87.2352 129.929 88.2537 129.15 88.6296 128.006L90.0948 123.556L94.6811 124.521C95.8521 124.771 97.0504 124.281 97.7095 123.279C98.3849 122.244 98.3689 120.964 97.6717 119.972ZM52.1036 86.1867C51.4772 88.1365 51.7822 90.1192 52.9968 91.7641C53.7757 92.8263 53.7757 94.2588 52.9968 95.3209C52.2996 96.2687 51.9075 97.3308 51.8094 98.4311H7.75006C5.2282 98.4311 3.17485 96.383 3.17485 93.8559V88.4744C3.17485 71.339 17.1186 57.4064 34.2429 57.4064C45.6212 57.4064 56.161 63.7791 61.5753 73.7735C61.2976 73.9152 61.0198 74.0786 60.7529 74.2747C59.0916 75.4729 58.1875 77.2703 58.2038 79.3075C58.2038 80.6311 57.365 81.7912 56.1123 82.1943C54.1678 82.8261 52.7462 84.2476 52.1036 86.1867ZM63.6506 126.361L62.3271 122.32C61.8696 120.909 60.4153 120.076 58.9664 120.381L54.8104 121.258L60.7637 112.821C62.425 114.019 64.4022 114.324 66.3412 113.687C67.3706 113.354 68.4599 113.589 69.2388 114.275L63.6506 126.361ZM74.7511 114.188C73.7326 114.188 72.8829 113.757 72.2946 112.935C71.1072 111.29 69.239 110.353 67.2891 110.353C66.6464 110.353 65.9764 110.451 65.3392 110.675C64.3751 110.996 63.4274 110.843 62.6213 110.244C61.7989 109.645 61.3686 108.795 61.3795 107.788C61.3958 105.081 59.6637 102.701 57.0874 101.878C56.1234 101.573 55.4425 100.903 55.1376 99.9281C54.8325 98.964 54.9687 98.0163 55.5678 97.2102C57.1691 95.0206 57.1691 92.0902 55.5678 89.9061C54.9687 89.0836 54.8162 88.1468 55.1376 87.1882C55.4589 86.2241 56.1289 85.5541 57.0874 85.2383C59.6693 84.4158 61.3958 82.0301 61.3795 79.3285C61.3795 78.31 61.8097 77.4603 62.6213 76.872C63.4438 76.2729 64.3806 76.1313 65.3392 76.4417C67.921 77.2914 70.7098 76.3873 72.2948 74.1813C72.883 73.3589 73.7327 72.9286 74.7512 72.9286C75.7698 72.9286 76.6194 73.3588 77.2077 74.1813C78.7981 76.3818 81.5869 77.2915 84.1633 76.4417C85.1273 76.1204 86.0751 76.2729 86.8812 76.872C87.7036 77.4712 88.1339 78.3209 88.123 79.3285C88.1067 82.0355 89.8388 84.4157 92.415 85.2383C93.3791 85.5433 94.06 86.2132 94.3649 87.1882C94.6699 88.1522 94.5338 89.1 93.9346 89.9061C92.3333 92.0956 92.3333 95.0261 93.9346 97.2102C94.5338 98.0327 94.6863 98.9695 94.3649 99.9281C94.0599 100.892 93.3736 101.562 92.415 101.878C89.8332 102.7 88.1067 105.086 88.123 107.788C88.123 108.806 87.6927 109.656 86.8812 110.244C86.0587 110.843 85.1219 110.985 84.1633 110.675C81.5814 109.825 78.7927 110.729 77.2077 112.935C76.6195 113.752 75.7697 114.188 74.7511 114.188ZM90.5354 120.375C89.0865 120.07 87.6377 120.904 87.1747 122.314L85.8511 126.356L80.2573 114.264C81.0362 113.583 82.1419 113.343 83.155 113.676C85.094 114.318 87.0712 114.008 88.7324 112.81L94.6857 121.247L90.5354 120.375ZM89.0267 93.5503C89.0267 85.6744 82.6268 79.2748 74.7511 79.2748C66.8754 79.2748 60.4755 85.6746 60.4755 93.5503C60.4755 101.426 66.8754 107.826 74.7511 107.826C82.6268 107.826 89.0267 101.426 89.0267 93.5503ZM74.7511 104.662C68.629 104.662 63.6396 99.6835 63.6396 93.5503C63.6396 87.4173 68.618 82.4389 74.7511 82.4389C80.8732 82.4389 85.8626 87.4172 85.8626 93.5503C85.8626 99.6833 80.8842 104.662 74.7511 104.662ZM79.2283 96.4372C79.2283 98.3491 78.03 99.9777 76.3415 100.62V101.318C76.3415 102.194 75.628 102.908 74.7511 102.908C73.8742 102.908 73.1607 102.194 73.1607 101.318V100.62C72.1312 100.228 71.2652 99.4657 70.7477 98.4308C70.3555 97.6519 70.6769 96.7041 71.4612 96.2957C72.2401 95.9035 73.1879 96.2249 73.5963 97.0092C73.8196 97.4559 74.2663 97.7337 74.751 97.7337C75.4645 97.7337 76.0474 97.1454 76.0474 96.4373C76.0474 95.446 74.6258 95.141 74.4569 95.1138C71.9623 94.6399 70.2901 92.8533 70.2901 90.6801C70.2901 88.7682 71.4884 87.1396 73.1769 86.497V85.7998C73.1769 84.9228 73.8904 84.2094 74.7673 84.2094C75.6442 84.2094 76.3577 84.9229 76.3577 85.7998V86.497C77.3872 86.8891 78.2532 87.6517 78.7707 88.6866C79.1629 89.4654 78.8415 90.4132 78.0572 90.8216C77.2783 91.2138 76.3305 90.8924 75.9221 90.1081C75.6988 89.6614 75.2522 89.3837 74.7674 89.3837C74.0539 89.3837 73.4711 89.9719 73.4711 90.68C73.4711 91.6713 74.8926 91.9763 75.0615 92.0036C77.5397 92.4611 79.2283 94.2477 79.2283 96.4372Z" fill="#444444"/>
</svg>
