<svg width="130" height="130" viewBox="0 0 130 130" fill="none" xmlns="http://www.w3.org/2000/svg">
<path d="M129.691 55.2183L97.1913 1.0516C96.7998 0.398844 96.0952 0 95.3335 0H52.0002C50.8026 0 49.8335 0.970133 49.8335 2.16667C49.8335 3.3632 50.8026 4.33333 52.0002 4.33333H94.1063L125.106 55.998L104.322 76.7809L86.0913 57.0305C85.3952 56.273 84.2611 56.1143 83.3851 56.6433L74.9025 61.7413C65.6098 53.0763 58.8139 47.4629 54.7508 45.1191C53.5296 44.4128 52.3317 43.8228 51.1591 43.302C50.7717 42.3074 50.2328 41.3765 49.5443 40.5127C49.6787 39.254 49.7658 37.9246 49.7658 36.4906C49.7658 26.8432 43.5303 2.64909 43.2637 1.62394C43.0161 0.667562 42.155 0 41.1669 0C40.1787 0 39.3176 0.667562 39.07 1.62394C38.8034 2.64909 32.5679 26.8432 32.5679 36.4906C32.5679 37.9241 32.655 39.2528 32.7893 40.5111C32.0998 41.3747 31.5588 42.3099 31.1734 43.3025C30.0013 43.823 28.8037 44.4131 27.5829 45.1191C19.2272 49.9465 1.4009 67.4576 0.647648 68.2013C-0.0569415 68.8932 -0.202937 69.9744 0.290064 70.8293C0.685734 71.5106 1.40725 71.9115 2.16685 71.9115C2.3594 71.9115 2.55406 71.8862 2.74449 71.8333C3.69823 71.5697 24.7173 65.7223 34.309 61.0191L33.0745 86.8375L18.3872 95.6412C17.8477 95.9639 17.4753 96.5045 17.3674 97.1223C17.2574 97.7402 17.4203 98.3749 17.8159 98.8626L42.3644 129.196C42.7897 129.722 43.4139 130 44.0508 130C44.4401 130 44.8358 129.894 45.1892 129.675L111.641 88.5085C112.191 88.1679 112.559 87.5998 112.648 86.9587C112.735 86.3186 112.531 85.6722 112.091 85.1972L107.264 79.9671L129.365 57.8652C130.068 57.1628 130.203 56.071 129.691 55.2183ZM72.2062 65.1444C71.8576 65.0369 71.5105 64.9294 71.149 64.817C71.1488 64.817 71.1491 64.817 71.149 64.817C71.1455 64.8159 71.1418 64.8149 71.1384 64.8138C64.7463 62.8587 53.2845 59.1506 48.3164 56.2762L47.5886 55.8414C47.5865 55.8393 47.5822 55.8372 47.578 55.835C47.6542 55.7737 47.7219 55.7144 47.7769 55.6605C48.1197 55.4034 48.4603 55.1178 48.7333 54.8406C49.4654 54.1381 50.0853 53.3129 50.6249 52.3015C50.8089 51.963 50.9782 51.635 51.0629 51.3896C51.2533 50.9526 51.4162 50.5125 51.5326 50.0502C51.5432 50.009 51.5559 49.9677 51.5664 49.9264C51.6765 49.4874 51.759 49.0748 51.7928 48.7394C51.8098 48.6442 51.8246 48.5479 51.8373 48.4517C52.0848 48.5871 52.3345 48.7267 52.5842 48.8717C56.3545 51.0468 63.1254 56.6634 72.2062 65.1444ZM35.0012 45.4704C35.2826 44.4505 35.82 43.5216 36.5775 42.7314C39.0284 40.2467 43.2888 40.2444 45.7447 42.722C46.5171 43.5316 47.0526 44.4557 47.3431 45.5063C47.4976 46.0311 47.5801 46.6214 47.5801 47.2118C47.5801 47.472 47.5716 47.7333 47.5082 48.1131C47.4785 48.3607 47.4362 48.5807 47.3791 48.8103C47.3643 48.8621 47.3495 48.915 47.3368 48.969L47.3347 48.9679C47.2775 49.2102 47.1866 49.4366 47.0384 49.7878C46.9813 49.9465 46.8988 50.082 46.7507 50.3549C46.4735 50.8733 46.1328 51.3314 45.6949 51.7524C45.5319 51.9164 45.3521 52.0624 45.0135 52.3301C44.857 52.4729 44.6686 52.5819 44.4655 52.7035C43.9492 53.0146 43.3991 53.2399 42.6649 53.4293C41.7752 53.688 40.6358 53.6853 39.7348 53.438C39.6741 53.4227 39.6158 53.4171 39.5546 53.3997C38.9219 53.2526 38.3993 53.04 37.8428 52.6877C35.9364 51.5705 34.7536 49.4726 34.7536 47.2118C34.7536 46.6214 34.8361 46.0311 35.0012 45.4704ZM37.3491 88.1699L38.7717 58.4185C39.0467 58.2281 39.3155 58.0366 39.5821 57.8398C39.6111 57.8443 39.6437 57.8425 39.673 57.8467C40.1355 57.9146 40.6129 57.9525 41.1132 57.9549C41.1477 57.955 41.1802 57.9556 41.2146 57.9553C41.7241 57.9532 42.2067 57.9135 42.6669 57.8462C42.6943 57.8422 42.7245 57.8441 42.7517 57.8398C42.8684 57.9258 42.9886 58.0086 43.1066 58.0932C43.1599 58.1314 43.2146 58.1711 43.2687 58.2091C43.3605 58.274 43.4499 58.3406 43.543 58.4048L44.9564 104H36.5923L37.3519 88.2007C37.3524 88.1902 37.3487 88.1803 37.3491 88.1699ZM47.9571 60.9846C52.3379 63.1482 59.0724 65.5255 65.2525 67.5105L48.4723 77.5842L47.9571 60.9846ZM41.1669 11.3496C43.0204 19.3604 45.4325 30.8612 45.4325 36.4906C45.4325 36.7783 45.4304 37.0619 45.424 37.3422C45.4093 37.3359 45.3929 37.334 45.3783 37.3278C44.8461 37.1005 44.2875 36.9444 43.7236 36.8064C43.5935 36.7745 43.4722 36.7158 43.3407 36.6888C42.6325 36.5435 41.906 36.4652 41.1669 36.4652C40.4285 36.4652 39.7027 36.5432 38.9948 36.6887C38.8309 36.7221 38.6796 36.7945 38.5179 36.8354C37.9893 36.9702 37.4627 37.1117 36.9618 37.3258C36.945 37.3329 36.9264 37.3349 36.9097 37.3422C36.9033 37.0619 36.9012 36.7783 36.9012 36.4906C36.9012 30.8612 39.3133 19.3604 41.1669 11.3496ZM10.1078 65.1576C16.1148 59.5421 24.8724 51.689 29.7495 48.8706C29.9992 48.7278 30.2468 48.5881 30.4922 48.4527C30.4946 48.4735 30.5032 48.4927 30.5057 48.5134C30.5853 49.1668 30.7357 49.8008 30.9286 50.4201C30.9703 50.5538 31.0143 50.6838 31.061 50.8154C31.2784 51.4292 31.5348 52.0257 31.8556 52.5858C31.8792 52.6268 31.9085 52.6632 31.9326 52.7039C32.2455 53.2337 32.6098 53.727 33.0076 54.193C33.0885 54.2879 33.1648 54.3842 33.2491 54.4761C33.6773 54.9432 34.1449 55.3703 34.6535 55.7512C34.6881 55.7771 34.7143 55.8127 34.7494 55.8382C34.7473 55.8393 34.7451 55.8403 34.7451 55.8414L34.0173 56.2773C29.1402 59.0946 17.9704 62.7582 10.1078 65.1576ZM73.4489 107.071C73.8207 106.27 73.6932 105.296 73.0321 104.635L60.0321 91.6348C59.1857 90.7884 57.8146 90.7884 56.9683 91.6348C56.1219 92.4811 56.1219 93.8522 56.9683 94.6986L69.9683 107.699C70.3739 108.104 70.9015 108.303 71.4326 108.32L44.5311 124.985L22.7544 98.0755L32.8259 92.0381L32.1553 106.063C32.1278 106.654 32.3436 107.232 32.752 107.662C33.1603 108.091 33.7274 108.333 34.3199 108.333H47.1908C47.7769 108.333 48.3376 108.096 48.746 107.675C49.1543 107.254 49.3744 106.686 49.3574 106.1L48.6359 82.5407L70.7871 69.2424C71.0399 69.3204 71.2729 69.3906 71.5187 69.4658C71.7235 69.5285 71.925 69.5903 72.1245 69.651C72.5548 69.7818 72.9658 69.9057 73.3694 70.0267C73.5424 70.0785 73.7142 70.1304 73.8818 70.1802C74.2821 70.2996 74.6578 70.4106 75.0247 70.5186C75.1779 70.5637 75.3323 70.6093 75.4794 70.6525C75.8598 70.7638 76.2075 70.8648 76.5429 70.9616C76.6366 70.9888 76.7354 71.0176 76.8255 71.0435C77.2032 71.1523 77.5408 71.2487 77.8476 71.3359C77.8751 71.3437 77.9068 71.353 77.9337 71.3605C78.9415 71.6464 79.5404 71.8101 79.5554 71.8142C79.7437 71.8661 79.9362 71.8904 80.1245 71.8904C80.1513 71.8904 80.1765 71.881 80.2031 71.8801C80.2752 71.8774 80.3429 71.8622 80.4139 71.8524C80.558 71.8327 80.6972 71.8024 80.8336 71.7547C80.9068 71.729 80.9757 71.701 81.0456 71.6678C81.1776 71.6053 81.2991 71.5278 81.4168 71.4394C81.4728 71.3974 81.5302 71.3618 81.582 71.3143C81.7415 71.1686 81.8861 71.0045 81.9992 70.8102C82.4922 69.9607 82.3505 68.8858 81.6564 68.1918C81.607 68.1421 81.5025 68.0385 81.3724 67.9099C81.313 67.8513 81.2595 67.7984 81.1834 67.7234C81.042 67.5842 80.8752 67.4207 80.6794 67.2294C80.6029 67.1545 80.5324 67.0857 80.4479 67.0033C80.2096 66.7711 79.9362 66.5062 79.6389 66.2189C79.563 66.1456 79.4927 66.0777 79.4132 66.0009C79.0376 65.6389 78.635 65.2521 78.1848 64.8229L84.1045 61.2655L101.909 80.554C101.985 80.971 102.146 81.3759 102.468 81.6986C102.749 81.9797 103.095 82.1325 103.453 82.2269L107.127 86.2075L73.4489 107.071Z" fill="#444444"/>
</svg>
