<svg width="129" height="130" viewBox="0 0 129 130" fill="none" xmlns="http://www.w3.org/2000/svg">
<path d="M108.388 129.979H102.005C101.918 129.985 101.832 129.985 101.745 129.979H77.9611C77.8747 129.987 77.7876 129.987 77.7012 129.979H66.4509C66.2805 130.007 66.1068 130.007 65.9365 129.979H61.0138C60.9273 129.988 60.8403 129.988 60.7538 129.979H1.38278C1.01604 129.979 0.664328 129.834 0.405007 129.574C0.145685 129.315 0 128.963 0 128.596V47.8421C0.00463328 47.6706 0.0421889 47.5016 0.110622 47.3443C0.185989 47.1623 0.299098 46.9982 0.44249 46.8631L14.4749 33.865C14.7306 33.6278 15.0665 33.4961 15.4152 33.4961C15.764 33.4961 16.0998 33.6278 16.3555 33.865L30.388 46.8631C30.5275 46.9939 30.6386 47.1521 30.7143 47.3277C30.7933 47.5013 30.833 47.6902 30.8305 47.8808V66.6479H42.0974V46.3653C42.0972 46.1091 42.1686 45.8579 42.3035 45.64C42.4383 45.4221 42.6313 45.2461 42.8606 45.1319L47.6063 42.7535V24.2298C47.6062 23.9735 47.6776 23.7223 47.8125 23.5044C47.9473 23.2865 48.1403 23.1106 48.3696 22.9963L53.6076 20.358V7.11648C53.6088 6.74985 53.7537 6.39832 54.0114 6.13747L59.7472 0.401704C60.008 0.144314 60.3597 0 60.7262 0C61.0926 0 61.4443 0.144314 61.7052 0.401704L67.4354 6.13747C67.564 6.26594 67.6659 6.41859 67.7352 6.58662C67.8045 6.75465 67.8398 6.93473 67.8392 7.11648V20.358L73.0827 22.9963C73.3106 23.1118 73.5021 23.2882 73.6359 23.506C73.7696 23.7237 73.8404 23.9742 73.8405 24.2298V42.7535L76.606 44.1307V39.4569C76.606 39.0902 76.7517 38.7385 77.011 38.4792C77.2703 38.2198 77.6221 38.0742 77.9888 38.0742H82.7787C83.1092 35.5442 84.3487 33.2208 86.2662 31.5375C88.1836 29.8542 90.6479 28.926 93.1994 28.926C95.7508 28.926 98.2152 29.8542 100.133 31.5375C102.05 33.2208 103.29 35.5442 103.62 38.0742H108.404C108.586 38.0734 108.766 38.1087 108.934 38.1779C109.103 38.2472 109.255 38.349 109.384 38.4775C109.512 38.6061 109.614 38.7588 109.683 38.9269C109.753 39.095 109.788 39.2751 109.787 39.4569V47.2558C109.795 47.3386 109.795 47.422 109.787 47.5047C109.796 47.5856 109.796 47.6672 109.787 47.7481V56.0724L122.935 69.2199L122.99 69.2697L127.642 73.9269C127.782 74.0522 127.895 74.2049 127.974 74.3755C128.053 74.5461 128.097 74.7311 128.102 74.9191C128.108 75.1072 128.074 75.2943 128.005 75.4691C127.935 75.6438 127.831 75.8026 127.698 75.9356C127.565 76.0686 127.406 76.1731 127.231 76.2426C127.057 76.3122 126.869 76.3453 126.681 76.34C126.493 76.3348 126.308 76.2912 126.138 76.212C125.967 76.1328 125.815 76.0196 125.689 75.8794L123.372 73.5618V128.596C123.372 128.963 123.226 129.315 122.967 129.574C122.707 129.834 122.356 129.979 121.989 129.979H108.388ZM20.443 127.214H59.371V77.8208H20.4154L20.443 127.214ZM2.79322 127.214H17.6498V118.436H2.76556L2.79322 127.214ZM79.355 48.8875V127.214H83.1106V112.833C83.1099 112.651 83.1451 112.471 83.2144 112.303C83.2836 112.135 83.3854 111.982 83.514 111.853C83.6425 111.725 83.7953 111.623 83.9634 111.554C84.1315 111.485 84.3116 111.449 84.4934 111.45H101.872C102.239 111.45 102.591 111.596 102.85 111.855C103.109 112.114 103.255 112.466 103.255 112.833V127.214H107.005V48.8875H79.355ZM85.8762 114.216V127.214H91.8V114.216H85.8762ZM94.5656 114.216V127.225H100.489V114.216H94.5656ZM109.771 122.711V127.225H120.589V122.717L109.771 122.711ZM73.398 127.208H76.5894V47.7647C76.5599 47.5926 76.5599 47.4168 76.5894 47.2448L71.8437 44.8664C71.6137 44.7524 71.42 44.5767 71.2842 44.3588C71.1484 44.141 71.0759 43.8896 71.0749 43.6329V25.0816L65.8369 22.4432C65.6079 22.3271 65.4154 22.1499 65.2808 21.9312C65.1461 21.7126 65.0744 21.461 65.0736 21.2042V7.68619L60.7262 3.33873L56.3732 7.68619V21.2042C56.3737 21.4613 56.3025 21.7134 56.1677 21.9323C56.0329 22.1511 55.8397 22.3281 55.6099 22.4432L50.3719 25.0816V43.6108C50.3708 43.8668 50.2989 44.1175 50.1642 44.3351C50.0295 44.5528 49.8372 44.729 49.6086 44.8442L44.8629 47.2226V66.6479H48.0544V49.684C48.0544 49.3172 48.2001 48.9655 48.4594 48.7062C48.7187 48.4469 49.0704 48.3012 49.4372 48.3012C49.8039 48.3012 50.1556 48.4469 50.4149 48.7062C50.6742 48.9655 50.8199 49.3172 50.8199 49.684V66.6479H53.862V46.9571C53.862 46.5904 54.0077 46.2387 54.2671 45.9794C54.5264 45.72 54.8781 45.5744 55.2448 45.5744C55.6116 45.5744 55.9633 45.72 56.2226 45.9794C56.4819 46.2387 56.6276 46.5904 56.6276 46.9571V66.6479H59.3434V44.1141C59.3434 43.7474 59.4891 43.3957 59.7484 43.1364C60.0077 42.877 60.3594 42.7314 60.7262 42.7314C61.0929 42.7314 61.4446 42.877 61.7039 43.1364C61.9633 43.3957 62.1089 43.7474 62.1089 44.1141V67.7542C62.1265 67.849 62.1358 67.9453 62.1366 68.0418V127.225H64.8137V93.1088C64.8137 92.7421 64.9594 92.3904 65.2187 92.131C65.478 91.8717 65.8297 91.726 66.1964 91.726C66.5632 91.726 66.9149 91.8717 67.1742 92.131C67.4335 92.3904 67.5792 92.7421 67.5792 93.1088V127.192H70.6545V93.1254C70.6545 92.7587 70.8002 92.4069 71.0595 92.1476C71.3189 91.8883 71.6706 91.7426 72.0373 91.7426C72.404 91.7426 72.7558 91.8883 73.0151 92.1476C73.2744 92.4069 73.4201 92.7587 73.4201 93.1254L73.398 127.208ZM109.771 119.946H120.589V115.432H109.771V119.946ZM2.76556 115.67H17.6498V106.909H2.76556V115.67ZM109.771 112.65H120.589V108.131H109.771V112.65ZM109.771 105.366H120.589V100.847H109.771V105.366ZM2.76556 104.143H17.6498V95.3766H2.76556V104.143ZM109.771 98.0592H120.589V93.5458H109.771V98.0592ZM2.76556 92.611H17.6498V83.8497H2.76556V92.611ZM109.771 90.8023H120.589V86.2834H109.771V90.8023ZM109.771 83.5178H120.589V78.9989H109.771V83.5178ZM2.76556 81.0841H17.6498V72.3229H2.76556V81.0841ZM109.771 76.2334H120.589V70.7963L109.771 60.0106V76.2334ZM20.4154 75.0552H59.371V69.4135H20.4154V75.0552ZM2.76556 69.5573H17.6498V68.0252C17.6498 67.6584 17.7955 67.3067 18.0548 67.0474C18.3141 66.7881 18.6658 66.6424 19.0326 66.6424H28.0649V60.7905H2.76556V69.5573ZM2.76556 58.0249H28.0649V49.2636H2.76556V58.0249ZM4.91163 46.4981H25.9299L15.4152 36.7799L4.91163 46.4981ZM79.355 46.1219H107.011V40.8397H79.355V46.1219ZM85.5885 38.0742H100.832C100.512 36.2861 99.5724 34.6678 98.1791 33.5022C96.7857 32.3366 95.027 31.698 93.2104 31.698C91.3939 31.698 89.6351 32.3366 88.2418 33.5022C86.8485 34.6678 85.9093 36.2861 85.5885 38.0742ZM52.3078 115.759C51.9411 115.759 51.5894 115.613 51.33 115.354C51.0707 115.094 50.925 114.743 50.925 114.376V110.46C50.925 110.093 51.0707 109.741 51.33 109.482C51.5894 109.223 51.9411 109.077 52.3078 109.077C52.6745 109.077 53.0263 109.223 53.2856 109.482C53.5449 109.741 53.6906 110.093 53.6906 110.46V114.376C53.6906 114.743 53.5449 115.094 53.2856 115.354C53.0263 115.613 52.6745 115.759 52.3078 115.759ZM44.072 115.759C43.7052 115.759 43.3535 115.613 43.0942 115.354C42.8349 115.094 42.6892 114.743 42.6892 114.376V110.46C42.6892 110.093 42.8349 109.741 43.0942 109.482C43.3535 109.223 43.7052 109.077 44.072 109.077C44.4387 109.077 44.7904 109.223 45.0497 109.482C45.3091 109.741 45.4547 110.093 45.4547 110.46V114.376C45.4547 114.743 45.3091 115.094 45.0497 115.354C44.7904 115.613 44.4387 115.759 44.072 115.759ZM35.8306 115.759C35.4639 115.759 35.1121 115.613 34.8528 115.354C34.5935 115.094 34.4478 114.743 34.4478 114.376V110.46C34.4478 110.093 34.5935 109.741 34.8528 109.482C35.1121 109.223 35.4639 109.077 35.8306 109.077C36.1973 109.077 36.549 109.223 36.8084 109.482C37.0677 109.741 37.2134 110.093 37.2134 110.46V114.376C37.2134 114.559 37.1769 114.741 37.106 114.91C37.0352 115.08 36.9313 115.233 36.8006 115.362C36.6698 115.49 36.5148 115.592 36.3444 115.66C36.1741 115.728 35.9919 115.762 35.8085 115.759H35.8306ZM27.5948 115.759C27.228 115.759 26.8763 115.613 26.617 115.354C26.3577 115.094 26.212 114.743 26.212 114.376V110.46C26.212 110.093 26.3577 109.741 26.617 109.482C26.8763 109.223 27.228 109.077 27.5948 109.077C27.9615 109.077 28.3132 109.223 28.5725 109.482C28.8319 109.741 28.9775 110.093 28.9775 110.46V114.376C28.9775 114.743 28.8319 115.094 28.5725 115.354C28.3132 115.613 27.9615 115.759 27.5948 115.759ZM101.878 108.043C101.511 108.043 101.159 107.897 100.9 107.638C100.641 107.379 100.495 107.027 100.495 106.66V101.278C100.495 100.912 100.641 100.56 100.9 100.3C101.159 100.041 101.511 99.8955 101.878 99.8955C102.244 99.8955 102.596 100.041 102.855 100.3C103.115 100.56 103.26 100.912 103.26 101.278V106.66C103.26 107.027 103.115 107.379 102.855 107.638C102.596 107.897 102.244 108.043 101.878 108.043ZM96.0811 108.043C95.7143 108.043 95.3626 107.897 95.1033 107.638C94.844 107.379 94.6983 107.027 94.6983 106.66V101.278C94.6983 100.912 94.844 100.56 95.1033 100.3C95.3626 100.041 95.7143 99.8955 96.0811 99.8955C96.4478 99.8955 96.7995 100.041 97.0588 100.3C97.3182 100.56 97.4639 100.912 97.4639 101.278V106.66C97.4639 107.024 97.3205 107.373 97.0647 107.632C96.809 107.891 96.4615 108.038 96.0977 108.043H96.0811ZM90.2845 108.043C90.1027 108.044 89.9225 108.008 89.7544 107.939C89.5863 107.87 89.4336 107.768 89.3051 107.639C89.1765 107.511 89.0747 107.358 89.0055 107.19C88.9362 107.022 88.901 106.842 88.9017 106.66V101.278C88.9017 100.912 89.0474 100.56 89.3067 100.3C89.566 100.041 89.9177 99.8955 90.2845 99.8955C90.6512 99.8955 91.0029 100.041 91.2622 100.3C91.5216 100.56 91.6673 100.912 91.6673 101.278V106.66C91.6673 107.027 91.5216 107.379 91.2622 107.638C91.0029 107.897 90.6512 108.043 90.2845 108.043ZM84.4823 108.043C84.1156 108.043 83.7639 107.897 83.5046 107.638C83.2452 107.379 83.0995 107.027 83.0995 106.66V101.278C83.0995 100.912 83.2452 100.56 83.5046 100.3C83.7639 100.041 84.1156 99.8955 84.4823 99.8955C84.8491 99.8955 85.2008 100.041 85.4601 100.3C85.7194 100.56 85.8651 100.912 85.8651 101.278V106.66C85.8651 107.027 85.7194 107.379 85.4601 107.638C85.2008 107.897 84.8491 108.043 84.4823 108.043ZM52.3078 107.136C51.9411 107.136 51.5894 106.99 51.33 106.731C51.0707 106.471 50.925 106.12 50.925 105.753V101.837C50.925 101.47 51.0707 101.118 51.33 100.859C51.5894 100.6 51.9411 100.454 52.3078 100.454C52.6745 100.454 53.0263 100.6 53.2856 100.859C53.5449 101.118 53.6906 101.47 53.6906 101.837V105.753C53.6906 106.12 53.5449 106.471 53.2856 106.731C53.0263 106.99 52.6745 107.136 52.3078 107.136ZM44.072 107.136C43.7052 107.136 43.3535 106.99 43.0942 106.731C42.8349 106.471 42.6892 106.12 42.6892 105.753V101.837C42.6892 101.47 42.8349 101.118 43.0942 100.859C43.3535 100.6 43.7052 100.454 44.072 100.454C44.4387 100.454 44.7904 100.6 45.0497 100.859C45.3091 101.118 45.4547 101.47 45.4547 101.837V105.753C45.4547 106.12 45.3091 106.471 45.0497 106.731C44.7904 106.99 44.4387 107.136 44.072 107.136ZM35.8306 107.136C35.4639 107.136 35.1121 106.99 34.8528 106.731C34.5935 106.471 34.4478 106.12 34.4478 105.753V101.837C34.4478 101.47 34.5935 101.118 34.8528 100.859C35.1121 100.6 35.4639 100.454 35.8306 100.454C36.1973 100.454 36.549 100.6 36.8084 100.859C37.0677 101.118 37.2134 101.47 37.2134 101.837V105.753C37.2134 105.936 37.1769 106.118 37.106 106.287C37.0352 106.456 36.9313 106.61 36.8006 106.739C36.6698 106.867 36.5148 106.969 36.3444 107.037C36.1741 107.105 35.9919 107.139 35.8085 107.136H35.8306ZM27.5948 107.136C27.228 107.136 26.8763 106.99 26.617 106.731C26.3577 106.471 26.212 106.12 26.212 105.753V101.837C26.212 101.47 26.3577 101.118 26.617 100.859C26.8763 100.6 27.228 100.454 27.5948 100.454C27.9615 100.454 28.3132 100.6 28.5725 100.859C28.8319 101.118 28.9775 101.47 28.9775 101.837V105.753C28.9775 106.12 28.8319 106.471 28.5725 106.731C28.3132 106.99 27.9615 107.136 27.5948 107.136ZM52.3078 98.5127C51.9411 98.5127 51.5894 98.367 51.33 98.1077C51.0707 97.8484 50.925 97.4967 50.925 97.1299V93.1973C50.925 92.8306 51.0707 92.4789 51.33 92.2195C51.5894 91.9602 51.9411 91.8145 52.3078 91.8145C52.6745 91.8145 53.0263 91.9602 53.2856 92.2195C53.5449 92.4789 53.6906 92.8306 53.6906 93.1973V97.1133C53.6928 97.2963 53.6586 97.4779 53.5901 97.6476C53.5216 97.8173 53.4201 97.9717 53.2915 98.1019C53.1629 98.232 53.0097 98.3354 52.8408 98.4059C52.672 98.4764 52.4908 98.5127 52.3078 98.5127ZM44.072 98.5127C43.7052 98.5127 43.3535 98.367 43.0942 98.1077C42.8349 97.8484 42.6892 97.4967 42.6892 97.1299V93.1973C42.6892 92.8306 42.8349 92.4789 43.0942 92.2195C43.3535 91.9602 43.7052 91.8145 44.072 91.8145C44.4387 91.8145 44.7904 91.9602 45.0497 92.2195C45.3091 92.4789 45.4547 92.8306 45.4547 93.1973V97.1133C45.4569 97.2963 45.4228 97.4779 45.3543 97.6476C45.2858 97.8173 45.1843 97.9717 45.0557 98.1019C44.927 98.232 44.7738 98.3354 44.605 98.4059C44.4361 98.4764 44.255 98.5127 44.072 98.5127ZM35.8306 98.5127C35.4639 98.5127 35.1121 98.367 34.8528 98.1077C34.5935 97.8484 34.4478 97.4967 34.4478 97.1299V93.1973C34.4478 92.8306 34.5935 92.4789 34.8528 92.2195C35.1121 91.9602 35.4639 91.8145 35.8306 91.8145C36.1973 91.8145 36.549 91.9602 36.8084 92.2195C37.0677 92.4789 37.2134 92.8306 37.2134 93.1973V97.1133C37.2156 97.2982 37.1808 97.4816 37.1109 97.6528C37.041 97.8239 36.9375 97.9793 36.8065 98.1098C36.6756 98.2403 36.5197 98.3431 36.3483 98.4124C36.1769 98.4816 35.9933 98.5157 35.8085 98.5127H35.8306ZM27.5948 98.5127C27.228 98.5127 26.8763 98.367 26.617 98.1077C26.3577 97.8484 26.212 97.4967 26.212 97.1299V93.1973C26.212 92.8306 26.3577 92.4789 26.617 92.2195C26.8763 91.9602 27.228 91.8145 27.5948 91.8145C27.9615 91.8145 28.3132 91.9602 28.5725 92.2195C28.8319 92.4789 28.9775 92.8306 28.9775 93.1973V97.1133C28.9797 97.2963 28.9456 97.4779 28.8771 97.6476C28.8086 97.8173 28.7071 97.9717 28.5784 98.1019C28.4498 98.232 28.2966 98.3354 28.1278 98.4059C27.9589 98.4764 27.7778 98.5127 27.5948 98.5127ZM101.878 96.2173C101.511 96.2173 101.159 96.0716 100.9 95.8123C100.641 95.553 100.495 95.2012 100.495 94.8345V89.4472C100.495 89.0805 100.641 88.7288 100.9 88.4694C101.159 88.2101 101.511 88.0644 101.878 88.0644C102.244 88.0644 102.596 88.2101 102.855 88.4694C103.115 88.7288 103.26 89.0805 103.26 89.4472V94.8566C103.255 95.2195 103.106 95.5656 102.848 95.8201C102.589 96.0747 102.241 96.2173 101.878 96.2173ZM96.0811 96.2173C95.7143 96.2173 95.3626 96.0716 95.1033 95.8123C94.844 95.553 94.6983 95.2012 94.6983 94.8345V89.4472C94.6983 89.0805 94.844 88.7288 95.1033 88.4694C95.3626 88.2101 95.7143 88.0644 96.0811 88.0644C96.4478 88.0644 96.7995 88.2101 97.0588 88.4694C97.3182 88.7288 97.4639 89.0805 97.4639 89.4472V94.8566C97.4581 95.2167 97.3122 95.5603 97.057 95.8144C96.8019 96.0685 96.4577 96.213 96.0977 96.2173H96.0811ZM90.2845 96.2173C90.1027 96.218 89.9225 96.1828 89.7544 96.1135C89.5863 96.0443 89.4336 95.9425 89.3051 95.8139C89.1765 95.6854 89.0747 95.5326 89.0055 95.3645C88.9362 95.1964 88.901 95.0163 88.9017 94.8345V89.4472C88.9017 89.0805 89.0474 88.7288 89.3067 88.4694C89.566 88.2101 89.9177 88.0644 90.2845 88.0644C90.6512 88.0644 91.0029 88.2101 91.2622 88.4694C91.5216 88.7288 91.6673 89.0805 91.6673 89.4472V94.8566C91.6614 95.2195 91.5132 95.5656 91.2545 95.8201C90.9958 96.0747 90.6474 96.2173 90.2845 96.2173ZM84.4823 96.2173C84.1156 96.2173 83.7639 96.0716 83.5046 95.8123C83.2452 95.553 83.0995 95.2012 83.0995 94.8345V89.4472C83.0995 89.0805 83.2452 88.7288 83.5046 88.4694C83.7639 88.2101 84.1156 88.0644 84.4823 88.0644C84.8491 88.0644 85.2008 88.2101 85.4601 88.4694C85.7194 88.7288 85.8651 89.0805 85.8651 89.4472V94.8566C85.8593 95.2195 85.7111 95.5656 85.4524 95.8201C85.1937 96.0747 84.8453 96.2173 84.4823 96.2173ZM52.3078 89.8786C52.126 89.8794 51.9459 89.8441 51.7778 89.7749C51.6097 89.7056 51.4569 89.6038 51.3284 89.4753C51.1999 89.3467 51.098 89.194 51.0288 89.0259C50.9596 88.8578 50.9243 88.6776 50.925 88.4958V84.5798C50.925 84.2131 51.0707 83.8614 51.33 83.602C51.5894 83.3427 51.9411 83.197 52.3078 83.197C52.6745 83.197 53.0263 83.3427 53.2856 83.602C53.5449 83.8614 53.6906 84.2131 53.6906 84.5798V88.4958C53.6913 88.6776 53.656 88.8578 53.5868 89.0259C53.5176 89.194 53.4158 89.3467 53.2872 89.4753C53.1587 89.6038 53.0059 89.7056 52.8378 89.7749C52.6697 89.8441 52.4896 89.8794 52.3078 89.8786ZM44.072 89.8786C43.8902 89.8794 43.71 89.8441 43.5419 89.7749C43.3738 89.7056 43.2211 89.6038 43.0926 89.4753C42.964 89.3467 42.8622 89.194 42.7929 89.0259C42.7237 88.8578 42.6884 88.6776 42.6892 88.4958V84.5798C42.6892 84.2131 42.8349 83.8614 43.0942 83.602C43.3535 83.3427 43.7052 83.197 44.072 83.197C44.4387 83.197 44.7904 83.3427 45.0497 83.602C45.3091 83.8614 45.4547 84.2131 45.4547 84.5798V88.4958C45.4555 88.6776 45.4202 88.8578 45.351 89.0259C45.2817 89.194 45.1799 89.3467 45.0514 89.4753C44.9228 89.6038 44.7701 89.7056 44.602 89.7749C44.4339 89.8441 44.2538 89.8794 44.072 89.8786ZM35.8306 89.8786C35.6488 89.8794 35.4687 89.8441 35.3006 89.7749C35.1325 89.7056 34.9797 89.6038 34.8512 89.4753C34.7226 89.3467 34.6208 89.194 34.5516 89.0259C34.4823 88.8578 34.4471 88.6776 34.4478 88.4958V84.5798C34.4478 84.2131 34.5935 83.8614 34.8528 83.602C35.1121 83.3427 35.4639 83.197 35.8306 83.197C36.1973 83.197 36.549 83.3427 36.8084 83.602C37.0677 83.8614 37.2134 84.2131 37.2134 84.5798V88.4958C37.2141 88.6795 37.1782 88.8615 37.1076 89.0311C37.037 89.2006 36.9331 89.3544 36.8022 89.4832C36.6713 89.6121 36.516 89.7134 36.3453 89.7813C36.1746 89.8492 35.9921 89.8823 35.8085 89.8786H35.8306ZM27.5948 89.8786C27.413 89.8794 27.2328 89.8441 27.0647 89.7749C26.8966 89.7056 26.7439 89.6038 26.6154 89.4753C26.4868 89.3467 26.385 89.194 26.3157 89.0259C26.2465 88.8578 26.2112 88.6776 26.212 88.4958V84.5798C26.212 84.2131 26.3577 83.8614 26.617 83.602C26.8763 83.3427 27.228 83.197 27.5948 83.197C27.9615 83.197 28.3132 83.3427 28.5725 83.602C28.8319 83.8614 28.9775 84.2131 28.9775 84.5798V88.4958C28.9783 88.6776 28.943 88.8578 28.8738 89.0259C28.8045 89.194 28.7027 89.3467 28.5742 89.4753C28.4456 89.6038 28.2929 89.7056 28.1248 89.7749C27.9567 89.8441 27.7766 89.8794 27.5948 89.8786ZM72.0152 86.5046C71.6484 86.5046 71.2967 86.359 71.0374 86.0996C70.7781 85.8403 70.6324 85.4886 70.6324 85.1219V49.684C70.6324 49.3172 70.7781 48.9655 71.0374 48.7062C71.2967 48.4469 71.6484 48.3012 72.0152 48.3012C72.3819 48.3012 72.7336 48.4469 72.993 48.7062C73.2523 48.9655 73.398 49.3172 73.398 49.684V85.1274C73.398 85.4941 73.2523 85.8458 72.993 86.1052C72.7336 86.3645 72.3819 86.5046 72.0152 86.5046ZM66.2075 86.5046C65.8408 86.5046 65.4891 86.359 65.2297 86.0996C64.9704 85.8403 64.8247 85.4886 64.8247 85.1219V46.9571C64.8247 46.5904 64.9704 46.2387 65.2297 45.9794C65.4891 45.72 65.8408 45.5744 66.2075 45.5744C66.5742 45.5744 66.926 45.72 67.1853 45.9794C67.4446 46.2387 67.5903 46.5904 67.5903 46.9571V85.1219C67.5918 85.4858 67.4498 85.8356 67.1951 86.0955C66.9404 86.3553 66.5935 86.5044 66.2296 86.5102L66.2075 86.5046ZM101.878 84.3752C101.696 84.3759 101.516 84.3406 101.348 84.2714C101.18 84.2022 101.027 84.1003 100.898 83.9718C100.77 83.8432 100.668 83.6905 100.599 83.5224C100.529 83.3543 100.494 83.1742 100.495 82.9924V77.6106C100.495 77.2439 100.641 76.8922 100.9 76.6328C101.159 76.3735 101.511 76.2278 101.878 76.2278C102.244 76.2278 102.596 76.3735 102.855 76.6328C103.115 76.8922 103.26 77.2439 103.26 77.6106V82.9924C103.262 83.1746 103.227 83.3554 103.158 83.5241C103.089 83.6929 102.988 83.8462 102.859 83.9754C102.73 84.1045 102.577 84.2068 102.409 84.2764C102.241 84.346 102.06 84.3759 101.878 84.3752ZM96.0811 84.3752C95.8993 84.3759 95.7191 84.3406 95.5511 84.2714C95.383 84.2022 95.2302 84.1003 95.1017 83.9718C94.9731 83.8432 94.8713 83.6905 94.8021 83.5224C94.7328 83.3543 94.6976 83.1742 94.6983 82.9924V77.6106C94.6983 77.2439 94.844 76.8922 95.1033 76.6328C95.3626 76.3735 95.7143 76.2278 96.0811 76.2278C96.4478 76.2278 96.7995 76.3735 97.0588 76.6328C97.3182 76.8922 97.4639 77.2439 97.4639 77.6106V82.9924C97.4653 83.1732 97.4311 83.3526 97.3633 83.5203C97.2954 83.6879 97.1952 83.8406 97.0683 83.9695C96.9414 84.0984 96.7904 84.2011 96.6239 84.2716C96.4574 84.3422 96.2785 84.3792 96.0977 84.3807L96.0811 84.3752ZM90.2845 84.3752C90.1027 84.3759 89.9225 84.3406 89.7544 84.2714C89.5863 84.2022 89.4336 84.1003 89.3051 83.9718C89.1765 83.8432 89.0747 83.6905 89.0055 83.5224C88.9362 83.3543 88.901 83.1742 88.9017 82.9924V77.6106C88.9017 77.2439 89.0474 76.8922 89.3067 76.6328C89.566 76.3735 89.9177 76.2278 90.2845 76.2278C90.6512 76.2278 91.0029 76.3735 91.2622 76.6328C91.5216 76.8922 91.6673 77.2439 91.6673 77.6106V82.9924C91.6687 83.1746 91.634 83.3554 91.5651 83.5241C91.4962 83.6929 91.3945 83.8462 91.2658 83.9754C91.1372 84.1045 90.9842 84.2068 90.8158 84.2764C90.6473 84.346 90.4667 84.3759 90.2845 84.3752ZM84.4823 84.3752C84.3005 84.3759 84.1204 84.3406 83.9523 84.2714C83.7842 84.2022 83.6315 84.1003 83.5029 83.9718C83.3744 83.8432 83.2725 83.6905 83.2033 83.5224C83.1341 83.3543 83.0988 83.1742 83.0995 82.9924V77.6106C83.0995 77.2439 83.2452 76.8922 83.5046 76.6328C83.7639 76.3735 84.1156 76.2278 84.4823 76.2278C84.8491 76.2278 85.2008 76.3735 85.4601 76.6328C85.7194 76.8922 85.8651 77.2439 85.8651 77.6106V82.9924C85.8666 83.1746 85.8318 83.3554 85.7629 83.5241C85.694 83.6929 85.5923 83.8462 85.4637 83.9754C85.3351 84.1045 85.1821 84.2068 85.0136 84.2764C84.8452 84.346 84.6646 84.3759 84.4823 84.3752ZM101.878 72.5441C101.511 72.5441 101.159 72.3984 100.9 72.1391C100.641 71.8798 100.495 71.5281 100.495 71.1613V65.7795C100.495 65.4128 100.641 65.0611 100.9 64.8018C101.159 64.5424 101.511 64.3968 101.878 64.3968C102.244 64.3968 102.596 64.5424 102.855 64.8018C103.115 65.0611 103.26 65.4128 103.26 65.7795V71.1613C103.261 71.3434 103.226 71.5238 103.157 71.6922C103.088 71.8606 102.986 72.0137 102.857 72.1427C102.729 72.2717 102.576 72.374 102.408 72.4438C102.24 72.5137 102.06 72.5441 101.878 72.5441ZM96.0811 72.5441C95.7143 72.5441 95.3626 72.3984 95.1033 72.1391C94.844 71.8798 94.6983 71.5281 94.6983 71.1613V65.7795C94.6983 65.4128 94.844 65.0611 95.1033 64.8018C95.3626 64.5424 95.7143 64.3968 96.0811 64.3968C96.4478 64.3968 96.7995 64.5424 97.0588 64.8018C97.3182 65.0611 97.4639 65.4128 97.4639 65.7795V71.1613C97.4653 71.5262 97.3226 71.8768 97.0667 72.1368C96.8108 72.3969 96.4625 72.5453 96.0977 72.5496L96.0811 72.5441ZM90.2845 72.5441C90.1027 72.5448 89.9225 72.5096 89.7544 72.4403C89.5863 72.3711 89.4336 72.2693 89.3051 72.1407C89.1765 72.0122 89.0747 71.8595 89.0055 71.6914C88.9362 71.5233 88.901 71.3431 88.9017 71.1613V65.7795C88.9017 65.4128 89.0474 65.0611 89.3067 64.8018C89.566 64.5424 89.9177 64.3968 90.2845 64.3968C90.6512 64.3968 91.0029 64.5424 91.2622 64.8018C91.5216 65.0611 91.6673 65.4128 91.6673 65.7795V71.1613C91.668 71.3434 91.6327 71.5238 91.5636 71.6922C91.4944 71.8606 91.3927 72.0137 91.2642 72.1427C91.1357 72.2717 90.983 72.374 90.8149 72.4438C90.6468 72.5137 90.4665 72.5441 90.2845 72.5441ZM84.4823 72.5441C84.1156 72.5441 83.7639 72.3984 83.5046 72.1391C83.2452 71.8798 83.0995 71.5281 83.0995 71.1613V65.7795C83.0995 65.4128 83.2452 65.0611 83.5046 64.8018C83.7639 64.5424 84.1156 64.3968 84.4823 64.3968C84.8491 64.3968 85.2008 64.5424 85.4601 64.8018C85.7194 65.0611 85.8651 65.4128 85.8651 65.7795V71.1613C85.8658 71.3434 85.8306 71.5238 85.7614 71.6922C85.6923 71.8606 85.5905 72.0137 85.4621 72.1427C85.3336 72.2717 85.1809 72.374 85.0128 72.4438C84.8446 72.5137 84.6644 72.5441 84.4823 72.5441ZM101.878 60.713C101.511 60.713 101.159 60.5674 100.9 60.308C100.641 60.0487 100.495 59.697 100.495 59.3303V53.9485C100.495 53.5817 100.641 53.23 100.9 52.9707C101.159 52.7114 101.511 52.5657 101.878 52.5657C102.244 52.5657 102.596 52.7114 102.855 52.9707C103.115 53.23 103.26 53.5817 103.26 53.9485V59.3303C103.261 59.5123 103.226 59.6927 103.157 59.8611C103.088 60.0295 102.986 60.1826 102.857 60.3116C102.729 60.4406 102.576 60.5429 102.408 60.6128C102.24 60.6826 102.06 60.713 101.878 60.713ZM96.0811 60.713C95.7143 60.713 95.3626 60.5674 95.1033 60.308C94.844 60.0487 94.6983 59.697 94.6983 59.3303V53.9485C94.6983 53.5817 94.844 53.23 95.1033 52.9707C95.3626 52.7114 95.7143 52.5657 96.0811 52.5657C96.4478 52.5657 96.7995 52.7114 97.0588 52.9707C97.3182 53.23 97.4639 53.5817 97.4639 53.9485V59.3303C97.4653 59.6951 97.3226 60.0457 97.0667 60.3058C96.8108 60.5658 96.4625 60.7142 96.0977 60.7186L96.0811 60.713ZM90.2845 60.713C90.1027 60.7138 89.9225 60.6785 89.7544 60.6093C89.5863 60.54 89.4336 60.4382 89.3051 60.3097C89.1765 60.1811 89.0747 60.0284 89.0055 59.8603C88.9362 59.6922 88.901 59.5121 88.9017 59.3303V53.9485C88.9017 53.5817 89.0474 53.23 89.3067 52.9707C89.566 52.7114 89.9177 52.5657 90.2845 52.5657C90.6512 52.5657 91.0029 52.7114 91.2622 52.9707C91.5216 53.23 91.6673 53.5817 91.6673 53.9485V59.3303C91.668 59.5123 91.6327 59.6927 91.5636 59.8611C91.4944 60.0295 91.3927 60.1826 91.2642 60.3116C91.1357 60.4406 90.983 60.5429 90.8149 60.6128C90.6468 60.6826 90.4665 60.713 90.2845 60.713ZM84.4823 60.713C84.1156 60.713 83.7639 60.5674 83.5046 60.308C83.2452 60.0487 83.0995 59.697 83.0995 59.3303V53.9485C83.0995 53.5817 83.2452 53.23 83.5046 52.9707C83.7639 52.7114 84.1156 52.5657 84.4823 52.5657C84.8491 52.5657 85.2008 52.7114 85.4601 52.9707C85.7194 53.23 85.8651 53.5817 85.8651 53.9485V59.3303C85.8658 59.5123 85.8306 59.6927 85.7614 59.8611C85.6923 60.0295 85.5905 60.1826 85.4621 60.3116C85.3336 60.4406 85.1809 60.5429 85.0128 60.6128C84.8446 60.6826 84.6644 60.713 84.4823 60.713ZM66.2296 40.8729C65.8629 40.8729 65.5112 40.7272 65.2519 40.4679C64.9925 40.2086 64.8468 39.8569 64.8468 39.4901V27.5761C64.8468 27.2094 64.9925 26.8576 65.2519 26.5983C65.5112 26.339 65.8629 26.1933 66.2296 26.1933C66.5964 26.1933 66.9481 26.339 67.2074 26.5983C67.4667 26.8576 67.6124 27.2094 67.6124 27.5761V39.4901C67.6124 39.8569 67.4667 40.2086 67.2074 40.4679C66.9481 40.7272 66.5964 40.8729 66.2296 40.8729ZM55.267 40.8729C55.0852 40.8736 54.905 40.8384 54.7369 40.7691C54.5688 40.6999 54.4161 40.5981 54.2875 40.4695C54.159 40.341 54.0572 40.1883 53.9879 40.0202C53.9187 39.8521 53.8834 39.6719 53.8842 39.4901V27.5761C53.8842 27.2094 54.0299 26.8576 54.2892 26.5983C54.5485 26.339 54.9002 26.1933 55.267 26.1933C55.6337 26.1933 55.9854 26.339 56.2447 26.5983C56.504 26.8576 56.6497 27.2094 56.6497 27.5761V39.4901C56.6498 39.6736 56.6133 39.8552 56.5424 40.0245C56.4715 40.1937 56.3677 40.3471 56.2369 40.4758C56.1062 40.6045 55.9511 40.7059 55.7808 40.7741C55.6105 40.8422 55.4283 40.8758 55.2448 40.8729H55.267ZM60.7483 39.5123C60.3816 39.5123 60.0298 39.3666 59.7705 39.1072C59.5112 38.8479 59.3655 38.4962 59.3655 38.1295V26.2154C59.3655 25.8487 59.5112 25.497 59.7705 25.2377C60.0298 24.9783 60.3816 24.8327 60.7483 24.8327C61.115 24.8327 61.4667 24.9783 61.7261 25.2377C61.9854 25.497 62.1311 25.8487 62.1311 26.2154V38.1295C62.1311 38.3129 62.0946 38.4946 62.0237 38.6638C61.9529 38.833 61.849 38.9865 61.7183 39.1152C61.5875 39.2438 61.4325 39.3452 61.2621 39.4134C61.0918 39.4816 60.9096 39.5152 60.7262 39.5123H60.7483ZM60.7483 21.6135C60.3816 21.6135 60.0298 21.4679 59.7705 21.2085C59.5112 20.9492 59.3655 20.5975 59.3655 20.2308V8.31674C59.3655 7.95 59.5112 7.59828 59.7705 7.33896C60.0298 7.07964 60.3816 6.93396 60.7483 6.93396C61.115 6.93396 61.4667 7.07964 61.7261 7.33896C61.9854 7.59828 62.1311 7.95 62.1311 8.31674V20.2308C62.1311 20.4142 62.0946 20.5959 62.0237 20.7651C61.9529 20.9343 61.849 21.0878 61.7183 21.2164C61.5875 21.3451 61.4325 21.4465 61.2621 21.5147C61.0918 21.5829 60.9096 21.6165 60.7262 21.6135H60.7483Z" fill="#444444"/>
</svg>
