<svg width="111" height="130" viewBox="0 0 111 130" fill="none" xmlns="http://www.w3.org/2000/svg">
<path d="M32.3521 125.697C33.1061 125.866 50.6821 130 56.9351 130C63.2011 130 80.7771 125.866 81.5181 125.697C82.2461 125.528 82.7661 124.865 82.7661 124.124V104.403H103.501C107.557 104.403 110.859 101.101 110.859 97.045V96.226V95.745V25.792C110.859 23.361 108.883 21.385 106.452 21.385H83.8711V9.958C83.8711 4.472 79.3991 0 73.9131 0H37.5391C32.0531 0 27.5811 4.472 27.5811 9.958V21.385H4.98708C2.55608 21.385 0.580078 23.361 0.580078 25.792V97.214C0.580078 101.179 3.80408 104.403 7.76908 104.403H23.5771V106.47C21.6141 107.133 20.1841 108.992 20.1841 111.176C20.1841 112.411 20.6391 113.555 21.3931 114.426V123.253C21.3931 123.89 21.7701 124.475 22.3551 124.735C22.5631 124.826 22.7841 124.878 23.0181 124.878C23.4081 124.878 23.7981 124.735 24.1101 124.462L25.1631 123.513L26.2161 124.462C26.6971 124.891 27.3731 124.995 27.9581 124.748C28.5431 124.488 28.9201 123.903 28.9201 123.266V114.439C29.6741 113.568 30.1291 112.437 30.1291 111.189C30.1291 109.031 28.7381 107.185 26.8141 106.509V104.416H31.1041V124.124C31.1041 124.865 31.6241 125.515 32.3521 125.697ZM24.6431 119.782V116.129C24.8121 116.142 24.9811 116.155 25.1631 116.155C25.3321 116.155 25.5141 116.142 25.6831 116.129V119.782C25.3451 119.678 24.9811 119.678 24.6431 119.782ZM25.1631 112.918C24.2141 112.918 23.4341 112.138 23.4341 111.189C23.4341 110.916 23.4991 110.656 23.6161 110.422C23.7721 111.15 24.4221 111.696 25.2021 111.696C25.9431 111.696 26.5671 111.202 26.7621 110.513C26.8531 110.721 26.8921 110.942 26.8921 111.176C26.8921 112.138 26.1121 112.918 25.1631 112.918ZM58.5601 89.661C58.4821 88.764 57.7021 88.101 56.8051 88.179L25.3971 90.883L24.5001 90.584C23.7461 90.233 23.4731 89.908 23.4341 89.804C23.4861 89.7 23.7461 89.375 24.5001 89.024L52.3981 79.677C52.4501 79.664 52.5021 79.638 52.5411 79.625C54.9201 78.559 58.9371 78.559 61.3291 79.625C61.3811 79.651 61.4331 79.664 61.4721 79.677L89.3701 89.024C90.1241 89.375 90.3841 89.7 90.4361 89.804C90.3841 89.908 90.1241 90.233 89.3701 90.584L61.4721 99.931C61.4201 99.944 61.3681 99.97 61.3291 99.983C58.9501 101.049 54.9201 101.049 52.5411 99.983C52.4891 99.957 52.4371 99.944 52.3981 99.918L33.1321 93.47L57.0781 91.416C57.9751 91.338 58.6251 90.558 58.5601 89.661ZM51.2931 102.986C52.8791 103.688 54.9071 104.026 56.9351 104.026C58.9631 104.026 60.9911 103.675 62.5771 102.986L79.5161 97.305V114.621C75.3431 115.57 61.9011 118.547 56.9221 118.547C51.9561 118.547 38.5011 115.57 34.3281 114.621V97.305L51.2931 102.986ZM56.9351 126.763C51.9691 126.763 38.5141 123.786 34.3411 122.837V117.962C39.2551 119.08 51.8391 121.81 56.9351 121.81C62.0311 121.81 74.6021 119.08 79.5291 117.962V122.837C75.3561 123.773 61.9141 126.763 56.9351 126.763ZM107.622 97.045C107.622 99.32 105.776 101.166 103.501 101.166H97.7291V97.24C97.7291 93.964 100.394 91.299 103.67 91.299H107.622V95.745V96.226V97.045ZM30.8181 9.958C30.8181 6.253 33.8341 3.237 37.5391 3.237H73.9131C77.6181 3.237 80.6341 6.253 80.6341 9.958V21.385H74.2641V12.415C74.2641 10.595 72.7821 9.126 70.9751 9.126H40.4901C38.6701 9.126 37.2011 10.608 37.2011 12.415V21.385H30.8311V9.958H30.8181ZM71.0141 21.398H40.4381V12.428C40.4381 12.402 40.4641 12.376 40.4901 12.376H70.9751C71.0011 12.376 71.0271 12.402 71.0271 12.428V21.398H71.0141ZM3.83008 25.792C3.83008 25.155 4.35008 24.635 4.98708 24.635H106.465C107.102 24.635 107.622 25.155 107.622 25.792V46.124C107.622 51.363 103.358 55.614 98.1191 55.614H78.9181V51.454C78.9181 49.023 76.9421 47.06 74.5111 47.06H67.7511C65.3201 47.06 63.3441 49.036 63.3441 51.454V55.614H48.1081V51.454C48.1081 49.023 46.1321 47.06 43.7011 47.06H36.9411C34.5101 47.06 32.5341 49.036 32.5341 51.454V55.614H13.3331C8.09408 55.614 3.83008 51.35 3.83008 46.124V25.792ZM71.1311 55.627C70.2341 55.627 69.5061 56.355 69.5061 57.252V64.194H67.7381C67.1011 64.194 66.5811 63.674 66.5811 63.037V51.48C66.5811 50.843 67.1011 50.323 67.7381 50.323H74.4981C75.1351 50.323 75.6551 50.843 75.6551 51.48V63.037C75.6551 63.674 75.1351 64.194 74.4981 64.194H72.7561V57.252C72.7561 56.342 72.0281 55.627 71.1311 55.627ZM40.3211 55.627C39.4241 55.627 38.6961 56.355 38.6961 57.252V64.194H36.9281C36.2911 64.194 35.7711 63.674 35.7711 63.037V51.48C35.7711 50.843 36.2911 50.323 36.9281 50.323H43.6881C44.3251 50.323 44.8451 50.843 44.8451 51.48V63.037C44.8451 63.674 44.3251 64.194 43.6881 64.194H41.9461V57.252C41.9461 56.342 41.2181 55.627 40.3211 55.627ZM3.83008 97.227V91.299H7.78208C11.0581 91.299 13.7231 93.964 13.7231 97.24V101.166H7.76908C5.59808 101.166 3.83008 99.398 3.83008 97.227ZM16.9731 101.166V97.24C16.9731 92.17 12.8521 88.049 7.78208 88.049H3.83008V54.6C6.17008 57.213 9.56308 58.864 13.3331 58.864H32.5471V63.024C32.5471 65.455 34.5231 67.431 36.9541 67.431H43.7141C46.1451 67.431 48.1211 65.455 48.1211 63.024V58.864H63.3571V63.024C63.3571 65.455 65.3331 67.431 67.7641 67.431H74.5241C76.9551 67.431 78.9311 65.455 78.9311 63.024V58.864H98.1451C101.915 58.864 105.308 57.213 107.648 54.6V88.049H103.696C98.6261 88.049 94.5051 92.17 94.5051 97.24V101.166H82.7921V96.226L90.5141 93.639C90.5661 93.626 90.6181 93.6 90.6571 93.574C93.3221 92.378 93.7121 90.701 93.7121 89.804C93.7121 88.894 93.3221 87.23 90.6571 86.034C90.6051 86.008 90.5531 85.995 90.5141 85.982L62.6031 76.635C59.4181 75.244 54.5041 75.244 51.3191 76.635L23.4081 85.982C23.3561 85.995 23.3041 86.021 23.2651 86.034C20.6001 87.23 20.2101 88.907 20.2101 89.804C20.2101 90.714 20.6001 92.378 23.2651 93.574C23.3171 93.6 23.3691 93.613 23.4081 93.626L23.6031 93.691V101.153H16.9731V101.166ZM26.8271 101.166V94.783L31.1171 96.226V101.166H26.8271Z" fill="#444444"/>
</svg>
