<svg width="117" height="130" viewBox="0 0 117 130" fill="none" xmlns="http://www.w3.org/2000/svg">
<path d="M115.646 126.34L90.1358 90.1924C92.1226 87.4082 93.738 84.377 94.9411 81.1752C95.1113 80.903 95.2235 80.5986 95.2708 80.281V80.2775C97.0812 75.1497 97.8016 69.7005 97.386 64.2783C96.9703 58.8562 95.4278 53.5804 92.857 48.7884V26.6527L112.105 20.792C112.582 20.6474 112.999 20.3533 113.296 19.9531C113.593 19.553 113.753 19.068 113.753 18.5699C113.752 18.0718 113.592 17.587 113.295 17.187C112.998 16.787 112.581 16.4931 112.104 16.3487L58.711 0.0987213C58.2703 -0.0329071 57.8007 -0.0329071 57.3599 0.0987213L3.96699 16.3487C3.4903 16.4932 3.07273 16.7872 2.77596 17.1873C2.47919 17.5873 2.31898 18.0723 2.31898 18.5704C2.31898 19.0685 2.47919 19.5534 2.77596 19.9534C3.07273 20.3535 3.4903 20.6475 3.96699 20.792L9.28539 22.4116V37.1418C9.28539 37.7575 9.52997 38.348 9.96532 38.7833C10.4007 39.2187 10.9911 39.4633 11.6068 39.4633C12.2225 39.4633 12.813 39.2187 13.2483 38.7833C13.6837 38.348 13.9283 37.7575 13.9283 37.1418V23.8254L23.214 26.6527V48.7884C19.7538 55.2548 18.1746 62.5613 18.6556 69.8794C19.1366 77.1976 21.6584 84.2345 25.9352 90.1924L0.424716 126.34C0.145404 126.736 -0.00308658 127.209 4.86442e-05 127.694C0.00318387 128.178 0.157788 128.649 0.442199 129.041C0.726611 129.434 1.12658 129.727 1.58607 129.88C2.04555 130.034 2.54154 130.04 3.00452 129.897L24.2375 123.352C29.5555 121.73 35.2564 121.88 40.482 123.778L57.2427 129.861C57.7546 130.046 58.3155 130.046 58.8273 129.861L75.5964 123.774C80.8183 121.884 86.5116 121.735 91.8251 123.35L113.066 129.896C113.288 129.964 113.518 129.998 113.75 129.999C114.175 129.999 114.592 129.882 114.955 129.661C115.319 129.44 115.614 129.123 115.81 128.746C116.006 128.368 116.094 127.944 116.065 127.52C116.036 127.096 115.891 126.688 115.646 126.34ZM58.0355 118.118L45.3333 111.768C39.63 108.891 33.1063 108.079 26.8719 109.47L34.5222 98.9411C41.3039 104.033 49.5551 106.785 58.0355 106.785C66.5158 106.785 74.7671 104.033 81.5488 98.9411L89.1991 109.47C82.9654 108.082 76.4436 108.893 70.74 111.766L58.0355 118.118ZM58.8584 61.4535L55.9334 55.6035C55.4378 54.6387 54.7102 53.8122 53.816 53.1982L49.1314 50.0901C48.4103 49.6153 47.5989 49.2943 46.7481 49.1473C45.8974 49.0003 45.0254 49.0303 44.1867 49.2356L40.3496 50.2057C40.1504 50.2583 39.9425 50.2701 39.7386 50.2405C39.5346 50.2109 39.3387 50.1404 39.1626 50.0333C38.9865 49.9263 38.8338 49.7847 38.7137 49.6173C38.5936 49.4498 38.5085 49.2598 38.4635 49.0587L37.3322 44.6062C37.0659 43.5041 36.4994 42.4973 35.6956 41.6976L35.1431 41.1451C40.2517 36.6343 46.5806 33.7358 53.3331 32.8147C60.0855 31.8935 66.9596 32.9907 73.0897 35.9683L72.2248 40.299C72.0031 41.3597 72.066 42.4601 72.4072 43.4886L73.6376 47.2064C73.7315 47.4802 73.7469 47.7748 73.682 48.0569C73.6171 48.3389 73.4745 48.5972 73.2703 48.8024L69.9753 52.0988C69.1088 52.9654 68.5188 54.0694 68.2796 55.2712C68.0405 56.4731 68.1631 57.7189 68.6318 58.8511C69.1006 59.9833 69.8945 60.9511 70.9132 61.6322C71.9319 62.3133 73.1297 62.6771 74.3551 62.6776H78.2319C78.5784 62.6798 78.9143 62.7969 79.187 63.0107C79.4596 63.2245 79.6536 63.5228 79.7383 63.8587L80.5782 67.2638C80.9133 68.6049 81.6867 69.7956 82.7757 70.647C83.8646 71.4984 85.2068 71.9617 86.5891 71.9633H92.5108C92.2737 73.794 91.8903 75.6028 91.3643 77.3723L88.1607 76.9094C86.4346 76.6577 84.6728 76.9376 83.1097 77.7119L79.0143 79.7703C77.587 80.4734 76.3865 81.5642 75.5502 82.9177C74.7139 84.2713 74.2756 85.833 74.2855 87.424C74.2852 88.027 74.1448 88.6216 73.8753 89.161C73.6059 89.7004 73.2147 90.1697 72.7327 90.532L66.8871 94.9056C66.4826 95.2126 66.0186 95.4319 65.5247 95.5495L61.0961 96.6624C59.7468 96.9996 58.5006 97.662 57.4664 98.5918C56.4321 99.5216 55.6413 100.69 55.1629 101.996C50.2213 101.584 45.4251 100.119 41.0962 97.7006C36.7673 95.2819 33.0058 91.9652 30.0643 87.9731L36.3554 84.373C37.2983 83.827 38.0816 83.0432 38.6271 82.1C39.1726 81.1567 39.4611 80.0869 39.464 78.9973C39.4649 78.7106 39.5449 78.4297 39.6953 78.1857C39.8458 77.9417 40.0607 77.7439 40.3164 77.6144L42.2664 76.6394C42.8604 76.3449 43.4017 75.9543 43.8682 75.4833L46.9325 72.4206C47.2246 72.1307 47.6186 71.9666 48.0301 71.9633H51.7908C53.4339 71.9576 55.0084 71.3043 56.173 70.1452L57.7019 68.613C58.6193 67.6905 59.2243 66.5036 59.4317 65.2193C59.6392 63.9349 59.4387 62.6179 58.8584 61.4535ZM92.857 67.3204H86.5891C86.2426 67.3183 85.9067 67.2011 85.6341 66.9873C85.3614 66.7735 85.1675 66.4752 85.0827 66.1393L84.2428 62.7342C83.9078 61.3931 83.1344 60.2024 82.0454 59.351C80.9564 58.4996 79.6142 58.0363 78.2319 58.0347H74.3551C74.0483 58.0337 73.7486 57.9419 73.4938 57.771C73.2389 57.6 73.0404 57.3575 72.9231 57.074C72.8058 56.7904 72.7749 56.4785 72.8345 56.1775C72.8941 55.8764 73.0414 55.5998 73.2578 55.3822L76.5542 52.0858C77.3703 51.2733 77.9425 50.2484 78.2059 49.1273C78.4693 48.0062 78.4134 46.8337 78.0446 45.7427L76.8126 42.0224C76.7298 41.7708 76.7153 41.5017 76.7706 41.2426L77.3461 38.3641C82.1152 41.541 86.0263 45.8461 88.7321 50.8975C91.4379 55.9488 92.8548 61.59 92.857 67.3204ZM60.6469 102.01C61.0994 101.609 61.6395 101.321 62.2238 101.167L66.6693 100.049C67.7723 99.7772 68.8074 99.281 69.7104 98.5918L75.5117 94.2528C76.5708 93.4566 77.4307 92.4254 78.0236 91.2405C78.6165 90.0555 78.9262 88.7491 78.9284 87.424C78.9224 86.6971 79.1216 85.9832 79.5032 85.3644C79.8848 84.7456 80.4332 84.247 81.0854 83.9259L85.1728 81.8721C85.8886 81.5144 86.6973 81.3862 87.4887 81.5049L89.6553 81.8164C87.0605 87.4636 83.0024 92.3139 77.9018 95.8645C72.8011 99.4151 66.8436 101.537 60.6469 102.01ZM58.0355 4.746L103.456 18.5704L92.4579 21.9188C92.2099 21.5484 91.8604 21.2572 91.4513 21.0801C80.8908 16.5597 69.5228 14.229 58.0355 14.229C46.5481 14.229 35.1802 16.5597 24.6196 21.0801C24.2105 21.2572 23.8611 21.5484 23.613 21.9188L12.6146 18.5704L58.0355 4.746ZM27.8569 24.7593C47.2102 16.9094 68.8607 16.9094 88.2141 24.7593V41.9425C84.5187 37.5321 79.9015 33.9852 74.6875 31.5515C69.4735 29.1179 63.7895 27.8567 58.0355 27.8567C52.2815 27.8567 46.5974 29.1179 41.3834 31.5515C36.1695 33.9852 31.5522 37.5321 27.8569 41.9425V24.7593ZM31.8609 44.4293L32.4148 44.9834C32.6187 45.1862 32.7613 45.4424 32.8261 45.7225L33.9585 50.1818C34.1511 50.9746 34.4987 51.7213 34.9815 52.379C35.4642 53.0367 36.0725 53.5923 36.7711 54.0136C37.4697 54.4349 38.2448 54.7137 39.0518 54.8338C39.8587 54.9539 40.6815 54.913 41.4725 54.7134L45.2924 53.7454C45.507 53.6911 45.7304 53.6819 45.9487 53.7182C46.167 53.7545 46.3755 53.8356 46.5609 53.9564L51.1924 57.0281C51.439 57.1943 51.6411 57.4186 51.7808 57.6812L54.6984 63.5163C54.8507 63.809 54.9058 64.1426 54.8557 64.4687C54.8056 64.7949 54.6529 65.0965 54.4198 65.33L52.8877 66.8622C52.5959 67.1523 52.2022 67.3167 51.7908 67.3204H48.0301C46.3871 67.325 44.8125 67.9785 43.6491 69.1386L40.5783 72.2082C40.4657 72.3227 40.3341 72.417 40.1895 72.4868L38.2395 73.4618C37.2157 73.9808 36.3549 74.7721 35.7518 75.7488C35.1487 76.7254 34.8267 77.8494 34.8212 78.9973C34.8221 79.2714 34.7503 79.5409 34.6131 79.7782C34.4759 80.0156 34.2782 80.2123 34.0402 80.3483L27.5265 84.0749C24.0779 77.8247 22.6434 70.662 23.4192 63.5658C24.195 56.4696 27.1432 49.7867 31.8609 44.4293ZM22.8785 118.911L8.14278 123.454L28.9774 93.931C29.6149 94.6275 30.2693 95.3025 30.9546 95.9507L19.0143 112.384C18.7247 112.782 18.5691 113.261 18.5697 113.753C18.5703 114.245 18.7273 114.724 19.0178 115.121C19.3084 115.518 19.7176 115.813 20.1864 115.962C20.6551 116.112 21.1592 116.108 21.6259 115.952L25.5259 114.652C28.4177 113.679 31.474 113.289 34.5174 113.507C37.5609 113.724 40.5309 114.543 43.2551 115.918L55.714 122.149V124.366L42.0745 119.417C35.8986 117.178 29.1637 117.001 22.8785 118.911ZM93.1845 118.909C86.9047 117 80.1755 117.177 74.0044 119.412L60.3569 124.366V122.149L72.82 115.916C75.5435 114.542 78.5128 113.723 81.5556 113.507C84.5983 113.29 87.6538 113.68 90.5446 114.654L94.4446 115.954C94.9113 116.109 95.4154 116.113 95.8841 115.963C96.3529 115.814 96.7621 115.52 97.0527 115.123C97.3432 114.726 97.5001 114.246 97.5008 113.754C97.5014 113.262 97.3457 112.783 97.0562 112.385L85.1159 95.9518C85.8012 95.3035 86.4556 94.6275 87.0931 93.9322L107.928 123.455L93.1845 118.909Z" fill="#444444"/>
</svg>
