<svg width="119" height="132" viewBox="0 0 119 132" fill="none" xmlns="http://www.w3.org/2000/svg">
<path d="M71.7485 46.4684C71.7485 45.2718 72.6785 44.3007 73.8292 44.301H94.6375C95.7882 44.301 96.7183 45.2721 96.7183 46.4684C96.7183 47.6648 95.7882 48.6359 94.6375 48.6359H73.8292C72.6785 48.6359 71.7485 47.6648 71.7485 46.4684ZM84.2335 59.4736C84.2335 58.277 85.1635 57.3059 86.3142 57.3062H98.7992C99.95 57.3062 100.88 58.2773 100.88 59.4736C100.88 60.67 99.95 61.6411 98.7992 61.6411H86.3142C85.1635 61.6411 84.2335 60.67 84.2335 59.4736ZM82.1525 35.6307H77.9908C76.84 35.6307 75.91 34.6596 75.91 33.4632C75.91 32.2669 76.84 31.2958 77.9908 31.2958H82.1525C83.3032 31.2958 84.2333 32.2669 84.2333 33.4632C84.2333 34.6596 83.3032 35.6307 82.1525 35.6307ZM57.1825 57.3059H77.9908C79.1415 57.3059 80.0715 58.277 80.0715 59.4734C80.0715 60.6698 79.1415 61.6408 77.9908 61.6408H57.1825C56.0318 61.6408 55.1017 60.6698 55.1017 59.4734C55.1017 58.277 56.0318 57.3059 57.1825 57.3059ZM67.5867 117.997C68.7375 117.997 69.6675 118.968 69.6675 120.165C69.6675 121.361 68.7375 122.332 67.5867 122.332H28.051C22.314 122.332 17.6467 117.47 17.6467 111.494V14.326C15.2246 15.2211 13.485 17.6314 13.485 20.458C13.485 21.6544 12.555 22.6255 11.4042 22.6255C10.2535 22.6255 9.3235 21.6544 9.3235 20.458C9.3235 14.482 13.991 9.62027 19.7277 9.62027C20.8785 9.62027 21.8085 10.5913 21.8085 11.7877V111.494C21.8085 115.08 24.6093 117.997 28.051 117.997H67.5867ZM36.3742 48.6359C35.2235 48.6359 34.2935 47.6648 34.2935 46.4684C34.2935 45.2721 35.2235 44.301 36.3742 44.301H65.506C66.6567 44.301 67.5867 45.2721 67.5867 46.4684C67.5867 47.6648 66.6567 48.6359 65.506 48.6359H36.3742ZM36.3742 35.6307C35.2235 35.6307 34.2935 34.6596 34.2935 33.4632C34.2935 32.2669 35.2235 31.2958 36.3742 31.2958H44.6975C45.8482 31.2958 46.7782 32.2669 46.7782 33.4632C46.7782 34.6596 45.8482 35.6307 44.6975 35.6307H36.3742ZM69.6675 31.2955C70.8182 31.2955 71.7485 32.2666 71.7482 33.463C71.7482 34.6594 70.8182 35.6304 69.6675 35.6304H53.0208C51.87 35.6304 50.94 34.6594 50.94 33.463C50.94 32.2666 51.87 31.2955 53.0208 31.2955H69.6675ZM98.7992 1C109.126 1 117.527 9.75032 117.526 20.5078V111.544C117.526 113.417 117.033 115.279 116.101 116.928C115.714 117.616 115.019 117.997 114.306 117.997C113.948 117.997 113.585 117.902 113.253 117.698C112.262 117.091 111.933 115.762 112.514 114.731C113.069 113.747 113.365 112.643 113.365 111.544V20.5078C113.365 12.1413 106.829 5.33515 98.7992 5.33515H19.7275C11.7039 5.33515 5.17638 12.1281 5.16175 20.4819C5.17004 25.8725 7.96038 30.8967 12.4464 33.604C13.4389 34.2024 13.7822 35.5288 13.2038 36.5649C12.6276 37.5987 11.3562 37.9521 10.3616 37.3539C4.60821 33.8856 1.02707 27.446 1 20.5337V20.5078V20.4816V20.4578V20.4319C1.0395 9.7112 9.42518 1 19.7275 1H98.7992ZM105.042 100.657C105.042 107.829 99.4423 113.662 92.5568 113.662C85.6712 113.662 80.0717 107.829 80.0717 100.657C80.0717 93.4843 85.6712 87.6515 92.5568 87.6515C99.4423 87.6515 105.042 93.4843 105.042 100.657ZM92.5568 109.327C97.1472 109.327 100.88 105.438 100.88 100.657C100.88 95.8753 97.1472 91.9867 92.5568 91.9867C87.9666 91.9867 84.2335 95.8753 84.2335 100.657C84.2335 105.438 87.9663 109.327 92.5568 109.327ZM88.8008 115.832C89.7976 116.43 90.1388 117.757 89.5645 118.792L83.399 129.916C83.0369 130.566 82.3773 130.976 81.6594 131H81.5948C80.8977 131 80.2444 130.636 79.8593 130.027L77.8681 126.886L74.2621 126.661C73.54 126.617 72.8948 126.186 72.5537 125.525C72.2125 124.864 72.223 124.064 72.5829 123.414L78.8191 112.162C79.3956 111.124 80.6689 110.768 81.6636 111.369C82.6582 111.967 82.9994 113.294 82.4251 114.33L77.87 122.545L79.1561 122.625C79.8096 122.664 80.4068 123.024 80.7667 123.594L81.4783 124.712L85.9582 116.625C86.5347 115.589 87.8083 115.233 88.8008 115.832ZM106.349 112.264L112.531 123.414C112.889 124.064 112.901 124.864 112.56 125.525C112.219 126.186 111.574 126.617 110.852 126.661L107.248 126.888L105.258 130.027C104.871 130.636 104.216 131 103.521 131H103.456C102.738 130.976 102.079 130.566 101.717 129.916L95.5741 118.834C94.9998 117.797 95.341 116.471 96.3357 115.873C97.3281 115.274 98.6017 115.63 99.1801 116.666L103.637 124.712L104.345 123.593C104.707 123.026 105.304 122.666 105.957 122.625L107.243 122.544L102.742 114.431C102.168 113.395 102.509 112.069 103.506 111.471C104.496 110.87 105.772 111.226 106.349 112.264ZM36.3742 61.6411C35.2235 61.6411 34.2935 60.67 34.2935 59.4736C34.2935 58.2773 35.2235 57.3062 36.3742 57.3062H48.8592C50.01 57.3062 50.94 58.2773 50.94 59.4736C50.94 60.67 50.01 61.6411 48.8592 61.6411H36.3742ZM36.3742 74.6463C35.2235 74.6463 34.2935 73.6752 34.2935 72.4789C34.2935 71.2825 35.2235 70.3114 36.3742 70.3114H61.3442C62.495 70.3114 63.425 71.2825 63.425 72.4789C63.425 73.6752 62.495 74.6463 61.3442 74.6463H36.3742ZM36.5947 101.626C33.8438 95.8969 33.459 90.6059 35.5337 87.1077C36.9839 84.6626 39.4996 83.3166 42.6167 83.3166C45.351 83.3166 46.8534 84.7124 47.6337 85.8851C49.4191 88.5685 49.2192 92.8732 48.5347 96.6078C50.2721 95.522 50.988 95.8339 51.5435 96.0724C52.3592 96.4234 52.8961 97.2015 53.0022 98.1466C54.3839 97.1364 55.8964 96.3216 57.1825 96.3216C58.2603 96.3216 59.1842 96.8354 59.7149 97.7306C60.2164 98.5759 60.2579 99.6249 60.0894 100.657H65.5057C66.6565 100.657 67.5865 101.628 67.5865 102.824C67.5865 104.021 66.6565 104.992 65.5057 104.992H57.1825C56.4627 104.992 55.7948 104.601 55.4139 103.964C55.0349 103.327 54.9996 102.529 55.318 101.857C55.3429 101.808 55.368 101.756 55.3929 101.701C54.4648 102.399 53.3621 103.368 52.4111 104.357C51.814 104.976 50.9212 105.163 50.1431 104.825C49.365 104.491 48.8592 103.7 48.8592 102.824V101.764C48.0207 102.512 47.0572 103.433 46.1686 104.357C45.4756 105.076 44.3915 105.195 43.5717 104.647C42.7477 104.094 42.4044 103.019 42.7477 102.063C44.2895 97.7714 45.7626 90.6816 44.2125 88.3536C43.9794 88.0066 43.609 87.6513 42.6165 87.6513C40.9476 87.6513 39.7574 88.2345 39.0749 89.3854C37.7932 91.5465 38.255 95.396 40.3151 99.6877C40.8313 100.759 40.4128 102.061 39.385 102.597C38.3572 103.13 37.1065 102.696 36.5947 101.626ZM92.5568 72.4789C92.5568 73.6752 91.6267 74.6463 90.476 74.6463H69.6677C68.517 74.6463 67.587 73.6752 67.587 72.4789C67.587 71.2825 68.517 70.3114 69.6677 70.3114H90.476C91.6267 70.3114 92.5568 71.2825 92.5568 72.4789Z" fill="#444444" stroke="#444444"/>
</svg>
