<svg width="96" height="130" viewBox="0 0 96 130" fill="none" xmlns="http://www.w3.org/2000/svg">
<path d="M23.4594 70.4139L23.0247 69.2074L21.7913 68.8565C17.8284 67.7293 14.8442 63.7216 14.8442 58.7926C14.8442 55.5033 16.262 52.4202 18.543 50.4863L19.6526 49.5455L19.3829 48.1159L19.3007 47.6805C27.5417 51.4218 38.4577 53.0409 46.3981 53.0409C54.571 53.0409 65.7405 51.3511 74.0314 47.4294L73.9036 48.1157L73.6379 49.5426L74.7454 50.4808C77.0279 52.4145 78.4472 55.4993 78.4472 58.7926C78.4472 63.7234 75.4633 67.7292 71.4997 68.8565L70.2661 69.2073L69.8315 70.414C66.3129 80.183 57.016 86.7316 46.6457 86.7316C36.2754 86.7316 26.9784 80.183 23.4594 70.4139Z" stroke="#444444" stroke-width="5"/>
<path d="M44.0589 96.0816V97.5913L44.4601 97.8783L46.2165 99.1349L45.2285 101.055L42.4485 106.459L40.832 109.6L38.4072 107.031C35.895 104.368 33.1067 101.447 30.7337 99.0403C29.1624 97.4466 27.8581 96.1673 26.9502 95.3293C25.2825 96.5211 23.4181 97.6766 21.5689 98.8225L21.4721 98.8825L21.4721 98.8825C17.6057 101.279 13.8039 103.649 10.9339 106.529C8.1269 109.345 6.3894 112.475 6.3894 116.396C6.3894 116.811 6.65688 117.746 8.0989 119.049C9.50388 120.319 11.7849 121.704 15.1058 122.982C21.734 125.533 32.0954 127.5 46.6442 127.5C61.1929 127.5 71.5543 125.533 78.1824 122.982C81.5034 121.704 83.7844 120.319 85.1894 119.049C86.6313 117.746 86.8989 116.811 86.8989 116.396L44.0589 96.0816ZM44.0589 96.0816H49.233V97.5913L48.8318 97.8783L47.0754 99.1349L48.0634 101.055L50.8424 106.457L52.4588 109.598L54.8837 107.029C57.3953 104.367 60.1825 101.446 62.5547 99.0397C64.126 97.4457 65.4298 96.1668 66.3374 95.3292C68.0087 96.5237 69.8776 97.6817 71.7317 98.8304L71.8157 98.8825C71.8158 98.8825 71.8158 98.8826 71.8159 98.8826C75.6821 101.279 79.4838 103.649 82.3539 106.529C85.161 109.345 86.8987 112.475 86.8989 116.396L44.0589 96.0816Z" stroke="#444444" stroke-width="5"/>
<path d="M75.7184 24.6284L74.1606 25.2623V26.944V33.4709C74.1606 33.4674 74.1602 33.469 74.1584 33.4756C74.1399 33.5438 73.9769 34.1449 72.6528 35.1709C71.3324 36.1941 69.2994 37.2824 66.6541 38.2777C61.3848 40.2604 54.1187 41.7127 46.3981 41.7127C38.6775 41.7127 31.4113 40.2603 26.142 38.2776C23.4967 37.2823 21.4638 36.194 20.1434 35.1708C18.8194 34.1449 18.6562 33.5438 18.6377 33.4756C18.6359 33.469 18.6355 33.4674 18.6355 33.4709V26.9435V25.2614L17.0773 24.6277L3.69533 19.1851L43.1032 3.13753L43.106 3.13639C44.1156 2.72384 45.2588 2.5 46.3981 2.5C47.5374 2.5 48.6809 2.72384 49.6912 3.13651L49.6941 3.13771L87.7253 18.6163L87.7303 18.6184L89.1048 19.1813L86.7641 20.1337L75.7184 24.6284ZM90.2063 22.4494V20.1107L90.2581 36.6622L90.2648 38.8064L92.3849 39.1264C92.4247 39.1324 92.467 39.1535 92.5013 39.1929C92.5329 39.2293 92.5468 39.268 92.5468 39.3118C92.5468 39.3268 92.5434 39.3447 92.5253 39.3692C92.5055 39.396 92.4713 39.4245 92.4211 39.4412L90.4234 40.106L90.7387 42.1877L92.4998 53.8141H87.9794L89.7409 42.1878L90.0565 40.1047L88.057 39.4407C88.0058 39.4237 87.9713 39.3947 87.9515 39.368C87.9334 39.3437 87.9303 39.3262 87.9303 39.3118C87.9303 39.2717 87.9429 39.2337 87.9753 39.1963C88.0103 39.1559 88.0533 39.1346 88.0923 39.1285L90.2063 38.7981V36.6585V22.4494Z" stroke="#444444" stroke-width="5"/>
</svg>
