<svg width="149" height="130" viewBox="0 0 149 130" fill="none" xmlns="http://www.w3.org/2000/svg">
<path d="M146.158 9.5064H139.228V2.3766C139.228 1.06408 138.164 0 136.851 0H83.3724C79.9447 0 76.7068 1.30998 74.2675 3.60388C71.8281 1.3103 68.5899 0 65.1629 0H11.6834C10.3705 0 9.30676 1.06408 9.30676 2.3766V9.5064H2.3766C1.06377 9.5064 0 10.5705 0 11.883V95.3321C0 101.885 5.33055 107.215 11.883 107.215H57.631V125.247H47.3324C46.0195 125.247 44.9558 126.311 44.9558 127.623C44.9558 128.936 46.0195 130 47.3324 130H101.202C102.515 130 103.579 128.936 103.579 127.623C103.579 126.311 102.515 125.247 101.202 125.247H90.9034V114.345C90.9034 113.032 89.8396 111.968 88.5268 111.968C87.2139 111.968 86.1502 113.032 86.1502 114.345V125.247H62.3842V107.215H136.651C143.204 107.215 148.534 101.885 148.534 95.3321V11.883C148.534 10.5705 147.471 9.5064 146.158 9.5064ZM136.651 102.462H11.883C7.95179 102.462 4.7532 99.2636 4.7532 95.3321V86.5523H143.781V95.3321C143.781 99.2636 140.583 102.462 136.651 102.462ZM72.2879 8.57952C72.7284 9.24244 73.4712 9.64076 74.2672 9.64076C75.0632 9.64076 75.8059 9.24244 76.2467 8.57952C77.8384 6.1836 80.5024 4.75352 83.3721 4.75352H134.474V81.7997H14.06V4.7532H65.1626C68.0319 4.7532 70.6956 6.1836 72.2879 8.57952ZM143.781 81.7994H139.228V14.2596H143.781V81.7994ZM9.30676 81.7994H4.7532V14.2596H9.30676V81.7994Z" fill="#444444"/>
<path d="M74.2672 77.0461C75.5801 77.0461 76.6438 75.982 76.6438 74.6695V16.7702C76.6438 15.4576 75.5801 14.3936 74.2672 14.3936C72.9544 14.3936 71.8906 15.4576 71.8906 16.7702V74.6692C71.8906 75.982 72.9547 77.0461 74.2672 77.0461Z" fill="#444444"/>
<path d="M60.9883 12.6758H24.5582C23.2454 12.6758 22.1816 13.7399 22.1816 15.0524C22.1816 16.3649 23.2454 17.429 24.5582 17.429H60.9883C62.3012 17.429 63.3649 16.3649 63.3649 15.0524C63.3649 13.7399 62.3009 12.6758 60.9883 12.6758Z" fill="#444444"/>
<path d="M60.9883 23.9648H24.5582C23.2454 23.9648 22.1816 25.0289 22.1816 26.3414C22.1816 27.654 23.2454 28.718 24.5582 28.718H60.9883C62.3012 28.718 63.3649 27.654 63.3649 26.3414C63.3649 25.0289 62.3009 23.9648 60.9883 23.9648Z" fill="#444444"/>
<path d="M24.5582 40.0081H42.7731C44.086 40.0081 45.1497 38.944 45.1497 37.6315C45.1497 36.319 44.086 35.2549 42.7731 35.2549H24.5582C23.2454 35.2549 22.1816 36.319 22.1816 37.6315C22.1816 38.944 23.2454 40.0081 24.5582 40.0081Z" fill="#444444"/>
<path d="M60.9883 46.5439H24.5582C23.2454 46.5439 22.1816 47.608 22.1816 48.9205C22.1816 50.2331 23.2454 51.2971 24.5582 51.2971H60.9883C62.3012 51.2971 63.3649 50.2331 63.3649 48.9205C63.3649 47.608 62.3009 46.5439 60.9883 46.5439Z" fill="#444444"/>
<path d="M60.9883 57.835H24.5582C23.2454 57.835 22.1816 58.899 22.1816 60.2116C22.1816 61.5241 23.2454 62.5882 24.5582 62.5882H60.9883C62.3012 62.5882 63.3649 61.5241 63.3649 60.2116C63.3649 58.899 62.3009 57.835 60.9883 57.835Z" fill="#444444"/>
<path d="M42.7731 69.124H24.5582C23.2454 69.124 22.1816 70.1881 22.1816 71.5006C22.1816 72.8131 23.2454 73.8772 24.5582 73.8772H42.7731C44.086 73.8772 45.1497 72.8131 45.1497 71.5006C45.1497 70.1881 44.086 69.124 42.7731 69.124Z" fill="#444444"/>
<path d="M87.5458 17.429H123.976C125.288 17.429 126.352 16.3649 126.352 15.0524C126.352 13.7399 125.288 12.6758 123.976 12.6758H87.5458C86.233 12.6758 85.1692 13.7399 85.1692 15.0524C85.1692 16.3649 86.2333 17.429 87.5458 17.429Z" fill="#444444"/>
<path d="M87.5458 28.718H123.976C125.288 28.718 126.352 27.654 126.352 26.3414C126.352 25.0289 125.288 23.9648 123.976 23.9648H87.5458C86.233 23.9648 85.1692 25.0289 85.1692 26.3414C85.1692 27.654 86.2333 28.718 87.5458 28.718Z" fill="#444444"/>
<path d="M87.5458 40.0081H105.76C107.073 40.0081 108.137 38.944 108.137 37.6315C108.137 36.319 107.073 35.2549 105.76 35.2549H87.5458C86.233 35.2549 85.1692 36.319 85.1692 37.6315C85.1692 38.944 86.2333 40.0081 87.5458 40.0081Z" fill="#444444"/>
<path d="M87.5458 51.2971H123.976C125.288 51.2971 126.352 50.2331 126.352 48.9205C126.352 47.608 125.288 46.5439 123.976 46.5439H87.5458C86.233 46.5439 85.1692 47.608 85.1692 48.9205C85.1692 50.2331 86.2333 51.2971 87.5458 51.2971Z" fill="#444444"/>
<path d="M87.5458 62.5882H123.976C125.288 62.5882 126.352 61.5241 126.352 60.2116C126.352 58.899 125.288 57.835 123.976 57.835H87.5458C86.233 57.835 85.1692 58.899 85.1692 60.2116C85.1692 61.5241 86.2333 62.5882 87.5458 62.5882Z" fill="#444444"/>
<path d="M87.5458 73.8772H105.76C107.073 73.8772 108.137 72.8131 108.137 71.5006C108.137 70.1881 107.073 69.124 105.76 69.124H87.5458C86.233 69.124 85.1692 70.1881 85.1692 71.5006C85.1692 72.8131 86.2333 73.8772 87.5458 73.8772Z" fill="#444444"/>
</svg>
