<svg width="35" height="35" viewBox="0 0 35 35" fill="none" xmlns="http://www.w3.org/2000/svg">
<g clip-path="url(#clip0_1175_3870)">
<path d="M17.5 35C7.85068 35 0.000423431 27.1494 0.000423431 17.4999C0.000423431 7.85057 7.85068 0 17.5 0C27.1494 0 34.9998 7.85057 34.9998 17.4999C34.9998 27.1494 27.1494 35 17.5 35ZM17.5 2.39561C9.17161 2.39561 2.39603 9.17135 2.39587 17.4999C2.39587 25.8285 9.17145 32.6042 17.5 32.6044C25.8284 32.6042 32.604 25.8285 32.604 17.4998C32.604 9.17151 25.8284 2.39561 17.5 2.39561Z" fill="white"/>
<path d="M19.85 24.9951C19.3822 25.4628 18.6238 25.4626 18.1562 24.9951C17.6882 24.5272 17.6882 23.7689 18.1563 23.301L22.7591 18.6984L9.43039 18.6971C8.76888 18.6969 8.23275 18.1608 8.23275 17.499C8.2329 16.8374 8.76904 16.3015 9.43055 16.3015L22.7597 16.3027L18.1558 11.6992C17.6881 11.2314 17.6881 10.4728 18.1558 10.0052C18.3898 9.77136 18.6963 9.6543 19.0029 9.6543C19.3094 9.6543 19.6159 9.77136 19.8499 10.005L26.4983 16.6533C26.723 16.8779 26.8492 17.1824 26.8492 17.5002C26.849 17.8181 26.7229 18.1225 26.4981 18.3475L19.85 24.9951Z" fill="white"/>
</g>
<defs>
<clipPath id="clip0_1175_3870">
<rect width="35" height="35" fill="white" transform="matrix(-1 0 0 1 35 0)"/>
</clipPath>
</defs>
</svg>
