<svg width="182" height="132" viewBox="0 0 182 132" fill="none" xmlns="http://www.w3.org/2000/svg">
<g id="Group 135045">
<path id="Vector" d="M174.186 3.04388C173.065 1.8871 174.186 2.31677 11.0511 0.912109C10.8532 0.912109 8.57714 1.11041 8.56064 3.37439L7.62053 112.805C3.29929 113.929 0.0831005 117.846 0.0501139 122.522C0.000634125 127.563 -0.197285 127.976 0.726338 128.901C1.86437 130.058 0.775825 129.628 178.837 131.165C179.035 131.165 181.311 130.967 181.328 128.703C181.377 123.943 181.921 120.39 178.458 116.887C177.188 115.598 175.638 114.706 173.955 114.227C174.912 3.06042 175.308 4.18413 174.186 3.04388ZM176.396 126.191L4.96511 124.704V122.555C5.01459 119.779 7.24118 117.416 10.21 117.416L79.993 118.011C78.888 119.696 80.092 121.828 82.0217 121.845L157.561 122.506C157.759 122.506 160.035 122.307 160.051 120.043V118.705L171.3 118.804C174.17 118.837 176.446 121.184 176.429 124.026V126.174L176.396 126.191ZM155.103 117.532L88.0252 116.953L155.697 50.4882L155.631 58.6683L152.563 58.6352C149.298 58.6352 149.281 63.5598 152.547 63.5928L155.598 63.6259L155.565 67.9886L152.497 67.9555C149.232 67.9555 149.215 72.8801 152.481 72.9131L155.532 72.9462L155.499 77.3089L152.431 77.2758C149.166 77.2758 149.149 82.2004 152.415 82.2334L155.466 82.2665L155.433 86.6292L152.382 86.5961C149.05 86.6457 149.116 91.5207 152.333 91.5537L155.384 91.5868L155.351 95.9495L152.3 95.9164C148.918 95.9164 149.05 100.841 152.25 100.874L155.301 100.907L155.268 105.27L152.217 105.237C148.836 105.237 148.968 110.161 152.168 110.194L155.219 110.227L155.153 117.565L155.103 117.532ZM31.8162 112.657L31.8986 103.783L66.1387 104.08L66.0562 112.954L31.8162 112.657ZM168.991 113.846L160.084 113.764C160.2 101.205 160.678 44.8365 160.678 44.5556C160.695 42.3577 158.039 41.2175 156.472 42.7709L84.8585 113.119L71.0042 113.004C71.1031 101.353 71.4 100.94 70.3939 99.899C69.2724 98.7588 70.3939 99.1719 29.4576 98.8249C29.2597 98.8249 26.9836 99.0232 26.9671 101.287L26.8682 112.64L12.552 112.524L13.4756 5.93582L169.914 7.2909L168.991 113.88V113.846Z" fill="#444444"/>
<path id="Vector_2" d="M38.1667 49.3989C42.3724 49.432 42.257 49.3824 42.3394 49.5642L47.139 61.1815C47.9802 63.1976 50.8335 63.2141 51.6911 61.2145C62.8736 35.4184 62.7746 35.468 63.0055 35.468L111.133 35.8812C114.399 35.9142 114.465 30.9566 111.182 30.9235L63.055 30.5104C60.9439 30.4774 59.0966 31.7168 58.272 33.6172L49.481 53.8773C45.6876 44.6892 46.6937 44.5074 38.1996 44.4248C34.9175 44.4248 34.901 49.3493 38.1502 49.3824L38.1667 49.3989Z" fill="#444444"/>
<path id="Vector_3" d="M141.925 76.3999L114.2 103.634C112.633 105.171 113.705 107.864 115.915 107.881L143.426 108.112C144.779 108.112 145.884 107.021 145.9 105.65L146.131 78.1681C146.148 75.9703 143.492 74.83 141.925 76.3834V76.3999ZM140.969 103.138L121.935 102.973L141.134 84.1173L140.969 103.138Z" fill="#444444"/>
<path id="Vector_4" d="M72.9184 44.9186L69.7022 48.1411L66.486 44.9186C64.1769 42.6051 60.6804 46.1084 62.9894 48.422L66.2056 51.6444L62.9894 54.8669C60.6804 57.1804 64.1769 60.6838 66.486 58.3703L69.7022 55.1478L72.9184 58.3703C75.2274 60.6838 78.724 57.1804 76.4149 54.8669L73.1988 51.6444L76.4149 48.422C78.724 46.1084 75.2274 42.6051 72.9184 44.9186Z" fill="#444444"/>
<path id="Vector_5" d="M107.422 44.9186L104.206 48.1411L100.99 44.9186C98.6808 42.6051 95.1843 46.1084 97.4933 48.422L100.71 51.6444L97.4933 54.8669C95.1843 57.1804 98.6808 60.6838 100.99 58.3703L104.206 55.1478L107.422 58.3703C109.731 60.6838 113.228 57.1804 110.919 54.8669L107.703 51.6444L110.919 48.422C113.228 46.1084 109.731 42.6051 107.422 44.9186Z" fill="#444444"/>
<path id="Vector_6" d="M90.8464 49.167H83.0616C79.7959 49.167 79.7959 54.1246 83.0616 54.1246H90.8464C94.1121 54.1246 94.1121 49.167 90.8464 49.167Z" fill="#444444"/>
</g>
</svg>
