<svg width="35" height="35" viewBox="0 0 35 35" fill="none" xmlns="http://www.w3.org/2000/svg">
<g clip-path="url(#clip0_1175_3860)">
<path d="M34.3915 24.3671L25.4521 20.3804C25.0599 20.2054 24.6006 20.2939 24.3007 20.6022C23.7068 21.213 22.3049 22.6455 21.447 23.4896C19.7404 22.2893 17.9168 20.7113 16.1307 18.8864C16.1259 18.8815 16.1211 18.8767 16.1163 18.8719C14.3221 17.109 12.8046 15.3461 11.5968 13.6218C12.6318 12.5748 14.4545 10.7723 14.4772 10.7499C14.7809 10.4497 14.8674 9.99242 14.6941 9.60153L10.7335 0.66344C10.5295 0.202716 10.0216 -0.0418257 9.53507 0.0868665L2.65454 1.90327C0.566371 2.4357 -0.452879 4.62641 0.191996 6.72348C2.18216 13.1966 5.04685 18.7151 10.6395 24.3952C10.6414 24.3971 10.6432 24.399 10.6451 24.4009L10.6809 24.4367C10.6828 24.4386 10.6846 24.4405 10.6865 24.4423C18.076 31.747 24.7424 33.805 28.3238 34.9105C30.3959 35.55 32.5973 34.5544 33.1346 32.4445L34.9653 25.5706C35.0951 25.0826 34.8518 24.5724 34.3915 24.3671ZM31.1513 31.9207C31.1503 31.9249 31.1492 31.9292 31.1481 31.9335C30.9065 32.8903 29.8805 33.241 28.9275 32.9467C25.2746 31.819 19.1609 29.9319 12.1295 22.9826L12.0967 22.9494C5.16034 15.9037 3.12851 9.29491 2.15172 6.11854C1.85799 5.16258 2.20887 4.13545 3.16296 3.89385C3.16616 3.89305 3.16937 3.89225 3.17257 3.89118L9.21357 2.29684L12.5325 9.78667C11.6836 10.6284 10.0219 12.2803 9.5324 12.7988C9.20556 13.145 9.15936 13.6713 9.42105 14.0696C10.7738 16.1292 12.541 18.2362 14.6732 20.3319C16.7951 22.4991 18.9807 24.3431 20.9938 25.6645C21.3823 25.9195 21.8934 25.881 22.2395 25.5709C22.7802 25.0861 24.4297 23.4077 25.27 22.5481L32.758 25.8879L31.1513 31.9207Z" fill="white"/>
<path d="M17.5003 2.08897C26.0188 2.08897 32.9492 9.00224 32.9492 17.4997C32.9492 18.0669 33.4083 18.5271 33.9744 18.5271C34.5407 18.5271 34.9997 18.0669 34.9997 17.4997C34.9997 7.86915 27.1496 0.0341797 17.5003 0.0341797C16.9339 0.0341797 16.4749 0.494101 16.4749 1.06158C16.4749 1.62905 16.9339 2.08897 17.5003 2.08897Z" fill="white"/>
<path d="M17.5003 6.19884C23.7194 6.19884 28.7793 11.2684 28.7793 17.4999C28.7793 18.0671 29.2383 18.5273 29.8047 18.5273C30.3708 18.5273 30.8301 18.0671 30.8301 17.4999C30.8301 10.1353 24.8502 4.14404 17.5003 4.14404C16.9339 4.14404 16.4749 4.60396 16.4749 5.17144C16.4749 5.73865 16.9339 6.19884 17.5003 6.19884Z" fill="white"/>
<path d="M17.5003 10.3077C21.4579 10.3077 24.6777 13.5339 24.6777 17.4995C24.6777 18.0667 25.1368 18.5269 25.7031 18.5269C26.2695 18.5269 26.7285 18.0667 26.7285 17.4995C26.7285 12.401 22.5888 8.25293 17.5003 8.25293C16.9339 8.25293 16.4749 8.71312 16.4749 9.28033C16.4749 9.8478 16.9339 10.3077 17.5003 10.3077Z" fill="white"/>
</g>
<defs>
<clipPath id="clip0_1175_3860">
<rect width="35" height="35" fill="white"/>
</clipPath>
</defs>
</svg>
