<svg width="155" height="130" viewBox="0 0 155 130" fill="none" xmlns="http://www.w3.org/2000/svg">
<g id="Group 134994">
<path id="Vector" d="M146.819 14.0498H118.539C117.696 15.9753 116.132 17.5398 114.086 18.1415L112.04 18.8635H132.498C133.582 27.5283 140.441 34.3878 149.226 35.5913V91.3103C140.561 92.3934 133.702 99.253 132.498 108.038H131.175V112.852H146.819C150.791 112.852 154.04 109.603 154.04 105.631V21.3908C154.04 17.2991 150.791 14.0498 146.819 14.0498ZM149.226 105.511C149.226 106.835 148.143 107.918 146.819 107.918H137.433C138.516 101.901 143.209 97.0868 149.226 96.124V105.511ZM149.226 30.6572C143.209 29.5741 138.395 24.8807 137.433 18.8635H146.819C148.143 18.8635 149.226 19.9466 149.226 21.2704V30.6572Z" fill="#444444"/>
<path id="Vector_2" d="M51.7477 26.4455C53.0715 26.4455 54.1546 25.3624 54.1546 24.0386V15.0128L61.3752 17.4197V28.8523C61.3752 31.4999 63.5413 33.6661 66.1889 33.6661H97.4782C100.126 33.6661 102.292 31.4999 102.292 28.8523V17.4197L112.641 13.9298C113.845 13.5687 114.567 12.1246 114.206 10.9212C113.965 10.1991 113.364 9.59739 112.641 9.3567L82.5556 0.0902576C82.0742 -0.0300859 81.5929 -0.0300859 81.1115 0.0902576L51.0256 9.3567C50.0629 9.71773 49.3408 10.5601 49.3408 11.6432V11.7636C49.3408 11.8839 49.3408 11.8839 49.3408 12.0043V24.0386C49.3408 25.3624 50.4239 26.4455 51.7477 26.4455ZM97.4782 28.8523H66.1889V18.9842L81.1115 23.9183C81.5929 24.0386 82.0742 24.0386 82.676 23.9183L97.4782 18.9842V28.8523ZM81.8335 4.904L103.977 11.7636L81.8335 19.1045L59.6904 11.7636L81.8335 4.904Z" fill="#444444"/>
<path id="Vector_3" d="M4.81374 91.1892V35.4702C13.4785 34.3871 20.338 27.5275 21.5415 18.7424H44.5271V13.9287H7.22061C3.24927 13.9287 0 17.178 0 21.1493V105.39C0 109.361 3.24927 112.61 7.22061 112.61H87.8507V107.797H21.5415C20.338 99.1319 13.4785 92.2723 4.81374 91.1892ZM4.81374 21.2697C4.81374 19.9459 5.89683 18.8628 7.22061 18.8628H16.6074C15.5243 24.88 10.8309 29.6937 4.81374 30.6565V21.2697ZM7.22061 107.917C5.89683 107.917 4.81374 106.834 4.81374 105.51V96.1233C10.8309 97.2064 15.6446 101.9 16.6074 107.917H7.22061Z" fill="#444444"/>
<path id="Vector_4" d="M9.62744 76.6285C9.62744 77.9523 10.7105 79.0354 12.0343 79.0354H71.484C72.8077 79.0354 73.8908 77.9523 73.8908 76.6285C73.8908 75.3048 72.8077 74.2217 71.484 74.2217H12.0343C10.7105 74.2217 9.62744 75.3048 9.62744 76.6285Z" fill="#444444"/>
<path id="Vector_5" d="M12.0343 88.6624H72.206C73.5298 88.6624 74.6129 87.5793 74.6129 86.2555C74.6129 84.9317 73.5298 83.8486 72.206 83.8486H12.0343C10.7105 83.8486 9.62744 84.9317 9.62744 86.2555C9.62744 87.5793 10.7105 88.6624 12.0343 88.6624Z" fill="#444444"/>
<path id="Vector_6" d="M135.747 90.4686C136.951 88.5431 137.553 86.2566 137.553 83.8498C137.553 82.7667 137.793 81.6836 138.034 80.6005C138.395 79.6377 138.876 78.675 139.478 77.8326C140.922 75.9071 141.765 73.6206 141.885 71.334C141.765 68.9272 140.922 66.761 139.478 64.8355C138.876 63.9931 138.395 63.0303 138.034 62.0676C137.793 60.9845 137.553 59.9014 137.553 58.8183C137.553 56.5318 136.951 54.2453 135.747 52.3198C134.183 50.5146 132.257 49.1908 130.091 48.4688C129.128 48.1078 128.045 47.6264 127.203 47.0247C126.361 46.3026 125.639 45.5805 124.916 44.7381C123.593 42.8126 121.667 41.3685 119.501 40.4058C117.214 39.9244 114.928 39.9244 112.762 40.6465C111.679 40.8871 110.596 41.1278 109.392 41.2482C108.309 41.1278 107.106 41.0075 106.023 40.6465C103.856 39.9244 101.57 39.8041 99.2833 40.4058C97.1171 41.2482 95.1916 42.8126 93.8678 44.7381C93.2661 45.5805 92.4237 46.3026 91.5813 47.0247C90.6186 47.6264 89.6558 48.1078 88.6931 48.4688C86.5269 49.1908 84.481 50.5146 83.0369 52.3198C81.8335 54.2453 81.2318 56.5318 81.2318 58.9387C81.2318 60.0218 80.9911 61.1048 80.7504 62.1879C80.3894 63.1507 79.908 64.1134 79.3063 64.9558C77.8622 66.8813 77.0198 69.1679 76.8994 71.4544C77.0198 73.8613 77.8622 76.0274 79.3063 77.9529C79.908 78.7953 80.3894 79.7581 80.7504 80.7208C80.9911 81.8039 81.2318 82.887 81.2318 83.9701C81.2318 86.2566 81.8335 88.5431 83.0369 90.4686C84.6014 92.2738 86.5269 93.5976 88.6931 94.3196C89.6558 94.6807 90.7389 95.162 91.5813 95.7638C91.822 96.0044 92.183 96.2451 92.4237 96.4858V125.128C92.4237 127.775 94.5899 129.941 97.2375 129.941C98.2002 129.941 99.0426 129.701 99.7647 129.219L109.151 123.202L118.538 129.219C120.825 130.663 123.713 130.062 125.157 127.775C125.639 127.053 125.879 126.09 125.879 125.248V96.4858C126.12 96.2451 126.361 96.0044 126.722 95.7638C127.684 95.162 128.647 94.6807 129.61 94.3196C132.257 93.5976 134.303 92.2738 135.747 90.4686ZM111.919 118.99V108.761C111.919 107.437 110.836 106.354 109.512 106.354C108.189 106.354 107.106 107.437 107.106 108.761V118.99L97.4781 125.128V101.3C98.0799 101.781 98.8019 102.022 99.524 102.262C101.811 102.744 104.097 102.744 106.263 102.022C107.346 101.781 108.429 101.54 109.633 101.42C110.716 101.54 111.919 101.661 113.002 102.022C114.447 102.383 115.77 102.623 117.214 102.623C118.779 102.623 120.343 102.142 121.667 101.3V125.128L111.919 118.99ZM132.859 83.4887C132.859 84.9328 132.618 86.377 131.896 87.5804C130.813 88.5432 129.61 89.3856 128.166 89.7466C126.842 90.228 125.518 90.95 124.315 91.7924C123.232 92.6348 122.149 93.7179 121.306 94.801C120.464 96.0044 119.381 96.9672 118.057 97.6893C116.613 97.9299 115.289 97.8096 113.845 97.3282C112.401 96.9672 110.957 96.7265 109.392 96.6062C107.948 96.6062 106.384 96.8469 104.939 97.3282C103.616 97.8096 102.172 97.9299 100.727 97.6893C99.4036 96.9672 98.3205 96.0044 97.4781 94.801C96.6357 93.7179 95.5526 92.6348 94.4696 91.7924C93.2661 90.95 91.9423 90.3483 90.6186 89.7466C89.2948 89.3856 87.971 88.5432 86.8879 87.5804C86.2862 86.2566 85.9252 84.9328 85.9252 83.4887C85.8048 82.0446 85.5641 80.6005 85.2031 79.1564C84.7217 77.8326 84.12 76.5088 83.2776 75.4257C82.4352 74.2223 81.8335 72.8985 81.5928 71.4544C81.8335 70.0103 82.4352 68.5661 83.2776 67.483C84.12 66.2796 84.7217 65.0762 85.2031 63.7524C85.5641 62.3083 85.8048 60.8642 85.9252 59.42C85.9252 57.9759 86.1659 56.5318 86.8879 55.3284C87.971 54.3656 89.1744 53.5232 90.6186 53.1622C91.9423 52.6808 93.2661 51.9587 94.4696 51.1163C95.5526 50.2739 96.6357 49.1908 97.4781 48.1078C98.3205 46.9043 99.4036 45.9416 100.727 45.2195C102.172 44.9788 103.495 45.0992 104.819 45.5805C106.263 45.9416 107.707 46.1823 109.272 46.3026C110.716 46.3026 112.28 46.0619 113.725 45.5805C115.048 45.0992 116.492 44.9788 117.937 45.2195C119.26 45.9416 120.343 46.9043 121.186 48.1078C122.028 49.1908 123.111 50.2739 124.194 51.1163C125.398 51.9587 126.722 52.5605 128.045 53.1622C129.369 53.5232 130.693 54.3656 131.776 55.3284C132.378 56.6521 132.739 57.9759 132.739 59.42C132.859 60.8642 133.1 62.3083 133.461 63.7524C133.942 65.0762 134.544 66.4 135.386 67.483C136.229 68.6865 136.83 70.0103 137.071 71.4544C136.83 72.8985 136.229 74.3426 135.386 75.4257C134.544 76.6292 133.942 77.8326 133.461 79.1564C133.1 80.6005 132.859 82.0446 132.859 83.4887Z" fill="#444444"/>
<path id="Vector_7" d="M109.513 52.0781C98.9225 52.0781 90.2578 60.7429 90.2578 71.3331C90.2578 81.9233 98.9225 90.588 109.513 90.588C120.103 90.588 128.768 81.9233 128.768 71.3331C128.768 60.7429 120.103 52.1985 109.513 52.0781ZM109.513 85.7743C101.57 85.7743 95.0716 79.2757 95.0716 71.3331C95.0716 63.3904 101.57 56.8919 109.513 56.8919C117.455 56.8919 123.954 63.3904 123.954 71.3331C123.954 79.3961 117.455 85.7743 109.513 85.7743Z" fill="#444444"/>
</g>
</svg>
