<svg width="30" height="30" viewBox="0 0 30 30" fill="none" xmlns="http://www.w3.org/2000/svg">
<rect width="30" height="30" fill="#1E1E1E"/>
<g id="Articles" clip-path="url(#clip0_0_1)">
<rect width="1440" height="4210" transform="translate(-1017 -1212)" fill="white"/>
<g id="div">
<rect width="1440" height="2560" transform="translate(-1017 18)" fill="white"/>
<g id="div_2">
<g id="div_3">
<mask id="path-1-inside-1_0_1" fill="white">
<path d="M-1017 18H423V2606.7H-1017V18Z"/>
</mask>
<path d="M-1017 19H423V17H-1017V19Z" fill="#F2F2F2" mask="url(#path-1-inside-1_0_1)"/>
</g>
</g>
</g>
<g id="Group 134958">
<rect id="Rectangle 1017" x="-645" y="-15" width="696" height="60" rx="20" stroke="#035FB0" stroke-width="2"/>
<g id="right arrow / 24 / Outline" clip-path="url(#clip1_0_1)">
<path id="Vector" d="M29.5402 27.1235L22.7394 20.3226C24.3767 18.1429 25.2606 15.4897 25.2576 12.7636C25.2576 5.80009 19.5923 0.134766 12.6288 0.134766C5.66532 0.134766 0 5.80009 0 12.7636C0 19.727 5.66532 25.3924 12.6288 25.3924C15.355 25.3953 18.0081 24.5115 20.1879 22.8741L26.9887 29.675C27.333 29.9827 27.782 30.147 28.2435 30.1341C28.7051 30.1211 29.1442 29.932 29.4707 29.6055C29.7972 29.279 29.9864 28.8399 29.9993 28.3783C30.0122 27.9167 29.8479 27.4677 29.5402 27.1235ZM3.60823 12.7636C3.60823 10.9795 4.13728 9.23543 5.12847 7.752C6.11966 6.26858 7.52848 5.11239 9.17678 4.42964C10.8251 3.7469 12.6388 3.56826 14.3886 3.91632C16.1384 4.26438 17.7458 5.12351 19.0073 6.38506C20.2689 7.64661 21.128 9.25392 21.476 11.0037C21.8241 12.7536 21.6455 14.5673 20.9627 16.2156C20.28 17.8639 19.1238 19.2727 17.6404 20.2639C16.1569 21.2551 14.4129 21.7841 12.6288 21.7841C10.2373 21.7813 7.94453 20.83 6.25346 19.1389C4.5624 17.4478 3.6111 15.1551 3.60823 12.7636Z" fill="#035FB0"/>
</g>
</g>
</g>
<defs>
<clipPath id="clip0_0_1">
<rect width="1440" height="4210" fill="white" transform="translate(-1017 -1212)"/>
</clipPath>
<clipPath id="clip1_0_1">
<rect width="30" height="30" fill="white"/>
</clipPath>
</defs>
</svg>
