<svg width="141" height="130" viewBox="0 0 141 130" fill="none" xmlns="http://www.w3.org/2000/svg">
<g id="Phd">
<g id="Tuition-&#38;-Aid">
<g id="Cost?">
<g id="Facts">
<g id="Fact-#1">
<path id="quick-facts-grad-hat" fill-rule="evenodd" clip-rule="evenodd" d="M99.1404 116.803C100.325 117.099 101.046 118.299 100.75 119.484L98.5394 128.327C98.2874 129.33 97.3877 130 96.3974 130C96.2205 130 96.0391 129.98 95.8601 129.934C94.6753 129.637 93.9525 128.439 94.2509 127.252L96.4614 118.41C96.7554 117.227 97.9555 116.502 99.1404 116.803ZM70.1177 70.3061C69.814 70.3061 69.51 70.2462 69.2251 70.1245L1.44454 41.4715C0.570256 41.1038 0 40.2322 0 39.2651V36.8775C0 35.5595 1.04738 34.4898 2.33744 34.4898C3.6275 34.4898 4.67461 35.5595 4.67461 36.8775V37.6702L70.1177 65.3346L94.9304 54.843C96.1199 54.3438 97.4919 54.9169 97.9852 56.1371C98.4782 57.3549 97.9126 58.7517 96.7206 59.2557L71.0107 70.1248C70.7255 70.2465 70.4215 70.3061 70.1177 70.3061ZM97.9206 93.2294C98.4916 94.4044 98.0202 95.8262 96.8695 96.4076C91.6928 99.0236 82.8807 102.143 70.3057 102.143C34.3263 102.143 24.4464 77.9419 24.0424 76.9141C23.9333 76.6317 23.8776 76.3327 23.8776 76.0311V59.4145C23.8776 58.1043 24.9176 57.0408 26.1989 57.0408C27.4802 57.0408 28.5202 58.1043 28.5202 59.4145V75.5373C29.8575 78.5094 39.1593 96.3653 67.9841 97.3053V76.0311C67.9841 74.7209 69.0241 73.6574 70.3054 73.6574C71.5867 73.6574 72.6267 74.7209 72.6267 76.0311V97.3267C83.0404 96.9729 90.4039 94.3808 94.8123 92.1517C95.966 91.57 97.3542 92.0543 97.9206 93.2294ZM104.133 119.388C105.233 119.388 106.122 120.339 106.122 121.51V127.878C106.122 129.049 105.233 130 104.133 130C103.032 130 102.143 129.049 102.143 127.878V121.51C102.143 120.339 103.032 119.388 104.133 119.388ZM138.269 35.02C139.565 35.02 140.612 36.066 140.612 37.3549V39.6895C140.612 40.635 140.04 41.4895 139.161 41.849L107.802 54.7061V83.6664C110.676 80.6546 112.084 77.6032 112.49 76.6133V60.7023C112.49 59.4136 113.537 58.3677 114.833 58.3677C116.129 58.3677 117.176 59.4136 117.176 60.7023V77.0451C117.176 77.3042 117.132 77.5632 117.048 77.8084C116.942 78.1072 114.531 84.845 107.802 89.9044V103.156C110.523 104.125 112.49 106.691 112.49 109.731C112.49 113.592 109.335 116.735 105.459 116.735C101.583 116.735 98.4284 113.592 98.4284 109.731C98.4284 106.691 100.395 104.125 103.116 103.156V53.1212V53.1187V45.6383L76.3712 35.69C74.7449 36.7171 72.6522 37.3546 70.3063 37.3546C65.0498 37.3546 60.9322 34.2775 60.9322 30.3505C60.9322 26.4236 65.0498 23.3464 70.3063 23.3464C75.5627 23.3464 79.6803 26.4236 79.6803 30.3505C79.6803 30.8712 79.5982 31.3708 79.4622 31.8564L105.234 41.4427L132.14 30.3505L70.306 4.86031L8.47187 30.3505L70.306 55.8407L93.9854 46.0815C95.1806 45.5912 96.5515 46.154 97.0462 47.3447C97.5408 48.5379 96.9736 49.9037 95.776 50.394L71.2016 60.5242C70.9157 60.6435 70.6111 60.7017 70.3063 60.7017C70.0014 60.7017 69.6968 60.6432 69.4109 60.5242L1.44841 32.5078C0.571786 32.1483 0 31.2961 0 30.3505C0 29.405 0.571786 28.5552 1.44841 28.1932L69.4109 0.176881C69.9849 -0.0589602 70.627 -0.0589602 71.2013 0.176881L139.166 28.1929C140.04 28.5549 140.612 29.4047 140.612 30.3503C140.612 31.2958 140.04 32.1481 139.164 32.5076L107.803 45.4372V49.6561L135.925 38.1251V37.3546C135.925 36.066 136.973 35.02 138.269 35.02ZM70.306 32.6851C73.1674 32.6851 74.9931 31.3032 74.9931 30.3505C74.9931 29.3981 73.1676 28.0159 70.306 28.0159C67.4443 28.0159 65.6188 29.3979 65.6188 30.3505C65.6188 31.3029 67.4446 32.6851 70.306 32.6851ZM105.459 112.065C106.752 112.065 107.802 111.017 107.802 109.73C107.802 108.444 106.752 107.396 105.459 107.396C104.165 107.396 103.116 108.444 103.116 109.73C103.116 111.017 104.165 112.065 105.459 112.065ZM114.457 118.409L116.668 127.252C116.964 128.439 116.244 129.638 115.059 129.934C114.88 129.98 114.698 130 114.521 130C113.531 130 112.631 129.33 112.379 128.326L110.169 119.484C109.872 118.299 110.593 117.098 111.778 116.802C112.958 116.504 114.161 117.227 114.457 118.409Z" fill="#444444"/>
</g>
</g>
</g>
</g>
</g>
</svg>
